<?xml version="1.0" encoding="UTF-8"?>
<svg version="1.1" xmlns="http://www.w3.org/2000/svg" width="1024" height="1024">
<path d="M0 0 C6.30407242 0.00233379 12.60814215 0.00255042 18.91221489 0.00148464 C20.28756117 0.00125479 20.28756117 0.00125479 21.69069222 0.0010203 C23.55608149 0.00070042 25.42147076 0.0003762 27.28686002 0.00004771 C44.49484426 -0.0027577 61.70282305 0.00040421 78.91080639 0.00584807 C93.58402141 0.01034607 108.25722853 0.00950613 122.93044342 0.00492931 C140.17100102 -0.00044613 157.41155399 -0.00251876 174.65211232 0.00054158 C176.49469289 0.00086 178.33727347 0.00117437 180.17985405 0.00148464 C181.08544947 0.00163892 181.99104489 0.00179319 182.92408259 0.00195214 C189.22266005 0.00280587 195.52123448 0.00138022 201.81981147 -0.00099491 C209.48882345 -0.00382498 217.15782521 -0.00298658 224.82683604 0.00228583 C228.71743566 0.00487488 232.60801837 0.00601127 236.49861778 0.00263668 C251.30709228 -0.0090637 266.10405352 0.0828246 280.90570892 0.56916881 C282.0687921 0.60633349 283.23187527 0.64349817 284.43020339 0.68178905 C307.86163136 1.5479137 328.94912887 6.93830247 350.03517975 17.13530041 C350.97007232 17.58727794 350.97007232 17.58727794 351.92385162 18.04838634 C366.86727434 25.39569876 379.98016885 34.67413241 392.03517975 46.13530041 C393.38361476 47.28787335 394.73737782 48.43425745 396.09767975 49.57280041 C415.27449238 66.32810106 433.73466375 92.52796676 441.03517975 117.13530041 C441.03517975 118.12530041 441.03517975 119.11530041 441.03517975 120.13530041 C441.69517975 120.46530041 442.35517975 120.79530041 443.03517975 121.13530041 C443.95674105 123.92735744 444.74809231 126.66593299 445.47267975 129.51030041 C445.6914981 130.35576427 445.91031646 131.20122814 446.13576568 132.07231212 C448.18284565 140.25004884 449.62867445 148.50252141 450.73328812 156.85744978 C450.99869857 158.86004044 451.2795976 160.86056552 451.56295551 162.86069561 C452.35936288 170.17575708 452.17650521 177.54764858 452.16889251 184.89616466 C452.17076233 186.60773385 452.17306371 188.3193026 452.17575784 190.03087068 C452.1818614 194.7207757 452.18174394 199.41066285 452.18056346 204.10057092 C452.18035908 209.16418267 452.18588182 214.22778873 452.19062103 219.29139782 C452.19892074 229.20801333 452.20167558 239.1246229 452.20223341 249.04124159 C452.20270899 257.10581377 452.20476584 265.170384 452.20793403 273.23495556 C452.21673955 296.11607876 452.22135369 318.99719728 452.22060356 341.87832219 C452.22054362 343.72787504 452.22054362 343.72787504 452.22048248 345.61479259 C452.22042116 347.46661302 452.22042116 347.46661302 452.2203586 349.35584397 C452.21995239 369.35122814 452.22951598 389.34659346 452.24362085 409.34197218 C452.2580003 429.88935602 452.26489013 450.43673067 452.26402707 470.98411966 C452.26369559 482.5132455 452.26642091 494.04235159 452.27720512 505.57147289 C452.28633088 515.39033366 452.28846843 525.20916573 452.2816957 535.02802891 C452.27844067 540.03262612 452.27833682 545.03716831 452.28704895 550.04176021 C452.29496031 554.63384026 452.29343563 559.2258221 452.28476482 563.81789989 C452.28323994 565.4686631 452.28500721 567.11943381 452.29062489 568.77018816 C452.33695093 583.36357333 451.20001279 597.70142263 447.84767975 611.94780041 C447.63119781 612.86956066 447.41471588 613.79132091 447.19167389 614.7410133 C441.38556436 638.57479738 431.22375019 660.79039819 416.03517975 680.13530041 C415.31330475 681.06600353 414.59142975 681.99670666 413.84767975 682.95561291 C411.94043433 685.37579174 409.99986099 687.76166191 408.03517975 690.13530041 C407.16506256 691.20844494 407.16506256 691.20844494 406.27736725 692.30326916 C404.91206597 693.95548157 403.48035992 695.55248403 402.03517975 697.13530041 C401.37517975 697.13530041 400.71517975 697.13530041 400.03517975 697.13530041 C400.03517975 697.79530041 400.03517975 698.45530041 400.03517975 699.13530041 C398.63674225 700.54545666 398.63674225 700.54545666 396.66017975 702.19780041 C394.38305082 704.1170386 392.14856744 706.02476385 390.0156485 708.10405041 C377.22155214 720.46015067 361.22273024 729.9322277 345.03517975 737.13530041 C343.88791412 737.66381603 342.7406485 738.19233166 341.55861725 738.73686291 C302.26936469 755.72445547 257.54287171 752.30214754 215.69194688 752.22282458 C211.28005143 752.21526921 206.86815551 752.21147532 202.45625551 752.20762569 C190.0726145 752.19677945 177.68899545 752.17803777 165.30536945 752.15620691 C156.17003364 752.14017294 147.03469678 752.12651351 137.89935511 752.1142902 C102.39157557 752.0666509 66.88390886 751.99743177 31.37623085 751.89956547 C28.11321459 751.89061503 24.8501982 751.88171318 21.5871817 751.87284923 C20.77799049 751.87064601 19.96879928 751.8684428 19.13508713 751.86617281 C5.80277387 751.83017598 -7.52953873 751.80561255 -20.86188359 751.78495339 C-34.79497706 751.76313748 -48.72801107 751.73012606 -62.66105383 751.68659884 C-71.13911623 751.66043664 -79.61710568 751.64248362 -88.09520635 751.63595437 C-93.854267 751.63066885 -99.61323314 751.61434783 -105.37224288 751.58963475 C-108.67076304 751.57578529 -111.96897351 751.56804331 -115.26754319 751.57029224 C-134.11171148 751.57908154 -152.73610427 750.72433663 -170.96482025 745.51030041 C-171.85942963 745.25941662 -172.754039 745.00853283 -173.67575775 744.7500465 C-203.41399626 736.02953713 -229.46932106 719.29107091 -250.96482025 697.13530041 C-251.77821869 696.33350353 -252.59161713 695.53170666 -253.429664 694.70561291 C-277.93262649 669.86285587 -293.85671493 637.02884153 -299.53513275 602.68608166 C-299.83392422 600.15340546 -299.83392422 600.15340546 -300.96482025 598.13530041 C-301.2024363 595.45582776 -301.38427613 592.79853756 -301.51854264 590.1134832 C-301.56065406 589.30670723 -301.60276548 588.49993126 -301.64615301 587.66870754 C-302.05412115 579.27283389 -302.1105057 570.88841509 -302.10526215 562.48437572 C-302.1078546 560.78581424 -302.11087016 559.08725335 -302.11426555 557.38869328 C-302.12223491 552.77631417 -302.1241194 548.16395071 -302.12486302 543.55156554 C-302.12673125 538.55548113 -302.13428694 533.55940451 -302.14099823 528.5633247 C-302.15450778 517.66650071 -302.160594 506.76968044 -302.16500889 495.87284947 C-302.16778249 489.05660194 -302.17202168 482.24035581 -302.17651306 475.42410923 C-302.1886935 456.51414939 -302.19899689 437.60419066 -302.20238816 418.69422699 C-302.20271751 416.88337039 -302.20271751 416.88337039 -302.20305351 415.03593083 C-302.20327179 413.82599363 -302.20349006 412.61605642 -302.20371496 411.36945445 C-302.2041584 408.91811209 -302.20460497 406.46676972 -302.20505463 404.01542736 C-302.20527606 402.79950624 -302.20549749 401.58358512 -302.20572563 400.33081791 C-302.20967328 380.631044 -302.22713183 360.93130708 -302.25041415 341.23154746 C-302.27418023 320.9573126 -302.2865923 300.68309628 -302.28775607 280.40884728 C-302.2886696 269.04509003 -302.29434083 257.68138108 -302.31257569 246.31763721 C-302.32804747 236.64262059 -302.33305546 226.96766721 -302.32483758 217.29264055 C-302.32095671 212.36619517 -302.32173397 207.4398769 -302.33589493 202.51344753 C-302.46543177 154.69762458 -302.46543177 154.69762458 -295.83982025 132.51030041 C-295.54196625 131.48380382 -295.24411225 130.45730724 -294.93723236 129.3997047 C-288.41545532 107.72561554 -278.16955726 87.00170878 -263.76169525 69.45170666 C-261.79629106 67.18239222 -261.79629106 67.18239222 -260.96482025 64.13530041 C-260.26357025 63.57842541 -259.56232025 63.02155041 -258.83982025 62.44780041 C-256.4429687 60.51989807 -254.69065839 58.7636665 -252.71482025 56.44780041 C-244.68988448 47.13406338 -235.82505704 39.41774862 -225.96482025 32.13530041 C-225.38490326 31.70572033 -224.80498627 31.27614025 -224.20749604 30.83354259 C-203.35005583 15.61657274 -178.45180661 5.8918857 -152.96482025 2.13530041 C-152.028773 1.96625635 -151.09272574 1.79721229 -150.12831341 1.62304569 C-144.09713998 0.77150671 -137.9828924 0.89737633 -131.90361725 0.82356334 C-130.47605775 0.80317513 -129.04850237 0.78249688 -127.62095093 0.76155234 C-123.73806655 0.7062112 -119.85512601 0.65753164 -115.97212908 0.61082635 C-113.50294527 0.58086168 -111.03378447 0.54939152 -108.56462382 0.51757909 C-72.37669762 0.05550092 -36.19040806 -0.01376303 0 0 Z M-127.56531464 57.55354381 C-128.49932111 57.58861376 -129.43332757 57.62368372 -130.39563726 57.65981639 C-139.67526369 58.0845738 -149.60370993 58.86837013 -157.96482025 63.13530041 C-159.62990663 63.47644005 -161.29672213 63.80920604 -162.96482025 64.13530041 C-176.67154915 68.94956513 -190.60935974 76.77983989 -200.96482025 87.13530041 C-202.02473237 88.0134334 -203.08757315 88.88803619 -204.15232025 89.76030041 C-228.57298599 110.70668586 -241.35531007 142.68890515 -243.96482025 174.13530041 C-244.27532983 179.87253415 -244.23629587 185.61464755 -244.21878754 191.35830761 C-244.22109804 193.03467104 -244.22427848 194.71103345 -244.22824203 196.38739378 C-244.2365179 200.94749085 -244.23249791 205.50750318 -244.22626959 210.06760038 C-244.22171626 215.00361968 -244.22874308 219.93962511 -244.23422943 224.87564159 C-244.2430947 234.52727697 -244.24121418 244.17888114 -244.23540415 253.83051771 C-244.23087609 261.67943979 -244.2302797 269.52835317 -244.23245179 277.37727619 C-244.23275825 278.49699673 -244.23306472 279.61671726 -244.23338047 280.77036872 C-244.23401996 283.04550875 -244.23466839 285.32064877 -244.23532565 287.59578879 C-244.24102062 308.90014556 -244.23448429 330.20448509 -244.22372492 351.50883903 C-244.2147914 369.76250862 -244.21634144 388.01615276 -244.22556244 406.26982189 C-244.23628193 427.49959937 -244.24047009 448.72936175 -244.23433791 469.95914156 C-244.23370086 472.22593066 -244.23307212 474.49271975 -244.23245179 476.75950886 C-244.23214323 477.87462571 -244.23183468 478.98974257 -244.23151678 480.13865085 C-244.22979478 487.97156726 -244.23269427 495.80447404 -244.23741089 503.63738895 C-244.24303845 513.19257928 -244.24146404 522.74773678 -244.2308494 532.30292338 C-244.22561767 537.17187465 -244.22349301 542.04077132 -244.23014771 546.9097221 C-244.23616149 551.37754898 -244.23274374 555.84527128 -244.2221926 560.31308885 C-244.21998135 561.91855415 -244.22104281 563.52402853 -244.22594418 565.12948787 C-244.26525178 579.08933833 -243.5361448 593.17783175 -239.77732025 606.69780041 C-239.56228852 607.48316173 -239.34725678 608.26852306 -239.12570893 609.07768322 C-233.4973933 628.76388347 -223.19604632 644.59107083 -208.96482025 659.13530041 C-208.16817963 659.98221447 -207.371539 660.82912853 -206.55075775 661.70170666 C-202.64394979 665.77633283 -198.87054256 669.15670131 -193.9687265 671.96733166 C-191.84966862 673.20241608 -189.89974202 674.58783743 -187.90232025 676.01030041 C-171.78926246 686.6882893 -152.51649658 692.09579678 -133.28586518 692.44950939 C-131.84138851 692.48049693 -131.84138851 692.48049693 -130.36773049 692.51211048 C-127.16449993 692.57832115 -123.96119349 692.63675065 -120.757789 692.69389416 C-119.64245474 692.71495157 -118.52712048 692.73600899 -117.37798821 692.7577045 C-90.58843571 693.25589919 -63.80071597 693.25321711 -37.00754486 693.20396496 C-30.6489059 693.1934567 -24.2902624 693.18911056 -17.93161713 693.18412853 C-5.60934038 693.17362451 6.71291745 693.15672181 19.03517975 693.13530041 C19.36517975 692.47530041 19.69517975 691.81530041 20.03517975 691.13530041 C20.69517975 691.79530041 21.35517975 692.45530041 22.03517975 693.13530041 C23.02517975 693.13530041 24.01517975 693.13530041 25.03517975 693.13530041 C25.03517975 608.98530041 25.03517975 524.83530041 25.03517975 438.13530041 C-16.66620066 434.31319958 -16.66620066 434.31319958 -56.96482025 439.13530041 C-59.64316643 436.45695423 -59.20131255 434.43440289 -59.21366059 430.79417492 C-59.20287476 429.4584544 -59.20287476 429.4584544 -59.19187104 428.09574962 C-59.19216309 427.1591148 -59.19245514 426.22247997 -59.19275605 425.25746227 C-59.1913591 422.15154429 -59.17578074 419.04586414 -59.16013275 415.93998791 C-59.15640392 413.79050397 -59.15355634 411.64101834 -59.15155732 409.49153209 C-59.14391065 403.82631329 -59.12425329 398.16119657 -59.10214936 392.49601818 C-59.08171316 386.71824089 -59.07256037 380.94044715 -59.0624765 375.16264416 C-59.04100837 363.82015131 -59.00685999 352.47773434 -58.96482025 341.13530041 C-57.84087357 341.13863132 -57.84087357 341.13863132 -56.69422089 341.14202953 C-49.54778274 341.16227105 -42.40135896 341.17739403 -35.25489937 341.18711258 C-31.58299833 341.19227729 -27.91112146 341.19925454 -24.23923432 341.21073986 C-4.60643636 341.32671037 -4.60643636 341.32671037 15.01174225 340.69389416 C15.73670898 340.65490505 16.46167572 340.61591594 17.20861114 340.57574535 C20.40430271 340.6001148 20.40430271 340.6001148 23.03517975 339.13530041 C23.69517975 339.79530041 24.35517975 340.45530041 25.03517975 341.13530041 C25.04731002 339.40001331 25.04731002 339.40001331 25.05968536 337.62966991 C25.13752767 326.67072111 25.22535949 315.71189068 25.32270683 304.7530973 C25.37242738 299.1205131 25.41875749 293.48794548 25.45705475 287.85527111 C25.49421634 282.40867214 25.54065545 276.96222078 25.59324325 271.5157497 C25.61162462 269.4488144 25.62679094 267.38184766 25.63852371 265.31486393 C25.70642571 253.75478031 26.09346734 242.54852159 28.03517975 231.13530041 C28.16396011 230.3659869 28.29274048 229.59667339 28.42542328 228.80404735 C31.48798421 212.25069538 39.1749683 196.90978996 50.03517975 184.13530041 C51.09672271 182.83205822 51.09672271 182.83205822 52.179711 181.50248791 C71.15308906 159.14466943 99.4971987 149.23123589 127.91555084 146.71489025 C135.39063674 146.11770708 142.87827446 145.74284475 150.37209381 145.47636486 C151.61684478 145.42935436 151.61684478 145.42935436 152.88674225 145.38139416 C153.61715728 145.35746593 154.34757232 145.33353771 155.10012115 145.30888439 C157.25293 145.19060698 157.25293 145.19060698 160.03517975 144.13530041 C160.03517975 144.79530041 160.03517975 145.45530041 160.03517975 146.13530041 C161.02517975 146.13530041 162.01517975 146.13530041 163.03517975 146.13530041 C163.36517975 145.80530041 163.69517975 145.47530041 164.03517975 145.13530041 C164.03517975 145.46530041 164.03517975 145.79530041 164.03517975 146.13530041 C180.86517975 147.12530041 197.69517975 148.11530041 215.03517975 149.13530041 C215.0177774 157.27766369 215.0177774 157.27766369 215.0000235 165.58451916 C214.99491342 169.02527556 214.9900994 172.46602728 214.98635162 175.90678478 C214.98037599 181.36699975 214.97330981 186.82719794 214.95974029 192.28740001 C214.94886777 196.68996244 214.94289364 201.09250686 214.9403025 205.49508167 C214.93845613 207.17397732 214.93485065 208.852872 214.92944969 210.53175998 C214.92218136 212.88489857 214.92119125 215.23796294 214.92165435 217.59111095 C214.91805908 218.2837907 214.9144638 218.97647045 214.91075958 219.69014049 C214.91843558 223.29929498 215.18221872 226.62504485 216.03517975 230.13530041 C213.06426798 230.99604847 210.45361556 231.24864656 207.36525787 231.21708751 C206.4432962 231.2105566 205.52133453 231.20402569 204.57143463 231.19729687 C203.57978302 231.18586147 202.58813141 231.17442608 201.56642975 231.16264416 C199.44663978 231.14998594 197.32684802 231.13762588 195.20705475 231.12553478 C191.88082522 231.10084716 188.55469054 231.07299776 185.22853912 231.03935314 C182.00783046 231.00882851 178.78723848 230.99126943 175.56642975 230.97514416 C174.59097198 230.96168453 173.61551422 230.9482249 172.61049713 230.93435741 C159.23525939 230.88664559 146.16834696 232.98458272 136.09767975 242.51030041 C126.95410316 252.65499851 123.89754577 263.92264138 123.92165435 277.44755626 C123.92143531 278.48784481 123.92143531 278.48784481 123.92121185 279.54914928 C123.92190234 281.81618064 123.92965383 284.08312735 123.9375235 286.35014416 C123.93939075 287.93197658 123.9408132 289.5138096 123.94181122 291.09564281 C123.9456122 295.24006341 123.9554216 299.38444845 123.96651519 303.52885509 C123.97678155 307.76550385 123.98131999 312.0021584 123.98635162 316.23881603 C123.99704624 324.5376604 124.01409332 332.83647596 124.03517975 341.13530041 C136.12566674 341.18337443 136.12566674 341.18337443 148.210961 340.88139416 C149.56707221 340.83103248 150.92319229 340.78090888 152.27932037 340.73100353 C154.32380711 340.65258688 156.36814641 340.57195096 158.41237701 340.48710705 C165.7180538 340.188722 172.8422037 340.08946406 180.12038482 340.89286876 C186.46592057 341.42064471 192.85926759 341.23676757 199.22267975 341.19780041 C200.66603755 341.19277128 202.10939707 341.18821089 203.55275787 341.18412853 C207.04693479 341.1732442 210.54104587 341.1560589 214.03517975 341.13530041 C214.03517975 344.04707543 213.51063296 346.83549088 213.07302154 349.71440197 C212.97055114 350.39136623 212.86808075 351.0683305 212.76250518 351.76580883 C212.53889337 353.24184685 212.31460175 354.717782 212.08972038 356.19362713 C211.73043162 358.55196361 211.37301718 360.91057744 211.016091 363.26927257 C210.12628453 369.1469118 209.2334538 375.02409076 208.34035553 380.90123058 C207.46988981 386.63002159 206.60087843 392.3590301 205.7343985 398.08842541 C205.61450435 398.88104275 205.49461021 399.67366009 205.37108291 400.49029613 C203.47793153 413.02362875 201.68064282 425.56674454 200.03517975 438.13530041 C198.38517975 438.46530041 196.73517975 438.79530041 195.03517975 439.13530041 C195.03517975 438.80530041 195.03517975 438.47530041 195.03517975 438.13530041 C171.60517975 438.13530041 148.17517975 438.13530041 124.03517975 438.13530041 C124.03517975 522.28530041 124.03517975 606.43530041 124.03517975 693.13530041 C161.77892975 693.19717541 161.77892975 693.19717541 200.28517975 693.26030041 C208.19518951 693.27850841 216.10519928 693.29671642 224.25490631 693.31547619 C231.41966985 693.32216998 231.41966985 693.32216998 238.58443512 693.32618786 C241.74608547 693.32803182 244.9076669 693.33544826 248.0692984 693.34645153 C290.7005388 693.48796741 326.88610855 689.87432462 359.03517975 659.13530041 C359.70807037 658.52557384 360.380961 657.91584728 361.07424225 657.28764416 C374.29328174 644.88491985 384.8344257 626.82382259 389.03517975 609.13530041 C389.34455475 607.89264416 389.65392975 606.64998791 389.97267975 605.36967541 C390.32777305 603.87510359 390.68190837 602.38030391 391.03517975 600.88530041 C391.21307037 600.17889416 391.390961 599.47248791 391.57424225 598.74467541 C394.64234607 585.55640821 394.18358941 571.57659982 394.16889251 558.10211254 C394.17076587 556.44637396 394.17306863 554.79063583 394.17575784 553.13489837 C394.18181714 548.63183218 394.18174926 544.12878471 394.18056346 539.62571538 C394.18035796 534.75104907 394.1858922 529.87638853 394.19062103 525.00172497 C394.19889495 515.47041597 394.20167436 505.93911316 394.20223341 496.40780087 C394.20270995 488.65661124 394.20477157 480.90542364 394.20793403 473.15423466 C394.21673032 451.14453138 394.22135481 429.13483297 394.22060356 407.12512793 C394.2205636 405.94085545 394.22052365 404.75658297 394.22048248 403.53642345 C394.2204416 402.35069423 394.22040072 401.16496501 394.2203586 399.9433046 C394.21995202 380.72111505 394.2295272 361.49894508 394.24362085 342.27676119 C394.25800118 322.50660422 394.26489017 302.7364568 394.26402707 282.96629447 C394.26369576 271.87993197 394.2664141 260.79359002 394.27720512 249.70723224 C394.28633177 240.27098784 394.28846748 230.83477331 394.2816957 221.39852639 C394.27844192 216.59033055 394.27833239 211.78219196 394.28704895 206.97400165 C394.29496522 202.56169059 394.29343078 198.14948169 394.28476482 193.73717296 C394.28324108 192.15189444 394.28500279 190.5666081 394.29062489 188.98133881 C394.3378601 174.70221846 393.55074755 160.38919865 389.41017975 146.63530041 C389.15220611 145.76075207 388.89423248 144.88620373 388.62844146 143.98515392 C382.47271034 123.9799357 371.33831442 104.23671219 355.03517975 90.79936291 C353.68260529 89.67397869 352.36974692 88.49938274 351.09767975 87.28373791 C336.83838405 73.7266045 318.00633458 64.71529316 299.03517975 60.13530041 C298.36897696 59.96911327 297.70277417 59.80292614 297.01638342 59.63170303 C291.98605299 58.43239365 287.15196831 57.80835989 281.9752127 57.72590709 C281.19340393 57.70685841 280.41159516 57.68780973 279.60609521 57.66818381 C276.93591521 57.60756186 274.26574652 57.56229532 271.59523834 57.51860119 C270.14431923 57.49090408 270.14431923 57.49090408 268.66408862 57.46264745 C236.03112557 56.84614013 203.38352988 56.98865167 170.74619656 56.99999905 C163.93886118 57.00230933 157.13152831 57.00256067 150.32419265 57.00148464 C149.34377522 57.00133141 148.36335778 57.00117817 147.35323072 57.0010203 C145.35987284 57.00070049 143.36651496 57.00037627 141.37315708 57.00004771 C122.84302391 56.99722082 104.31289576 57.0004373 85.78276342 57.00584807 C69.94616403 57.01032914 54.10957197 57.00952406 38.27297271 57.00492931 C19.76073597 56.99956059 1.24850356 56.99747911 -17.26373385 57.00054158 C-19.24174924 57.00086005 -21.21976462 57.00117442 -23.19778 57.00148464 C-24.65668743 57.00171605 -24.65668743 57.00171605 -26.14506773 57.00195214 C-32.94109975 57.00280926 -39.73712897 57.00137226 -46.53316056 56.99900509 C-54.81783705 56.9961819 -63.10250409 56.99699861 -71.38717953 57.00228583 C-75.59898196 57.00488676 -79.8107687 57.0059901 -84.02257096 57.00263668 C-98.54144053 56.99212561 -113.05486292 56.98661331 -127.56531464 57.55354381 Z " fill="#D7A938" transform="translate(436.9648202545941,135.8646995946765)"/>
<path d="M0 0 C0 0.66 0 1.32 0 2 C0.99 2 1.98 2 3 2 C3 1.34 3 0.68 3 0 C3.56008255 0.15730591 4.1201651 0.31461182 4.69721985 0.47668457 C7.11249773 1.02556553 9.37235026 1.23174919 11.84448242 1.37304688 C12.8019487 1.42980591 13.75941498 1.48656494 14.74589539 1.54504395 C15.7720546 1.60236694 16.79821381 1.65968994 17.85546875 1.71875 C20.02539221 1.84762954 22.19531404 1.97653661 24.36523438 2.10546875 C27.78890557 2.30423551 31.21266176 2.5014427 34.63647461 2.69775391 C37.93887775 2.88840908 41.2409183 3.08459557 44.54296875 3.28125 C45.57520065 3.338573 46.60743256 3.395896 47.67094421 3.45495605 C49.09295891 3.5400946 49.09295891 3.5400946 50.54370117 3.62695312 C51.38213058 3.67501099 52.22056 3.72306885 53.08439636 3.77258301 C55 4 55 4 56 5 C56.08964954 7.34152796 56.1149968 9.65329066 56.09765625 11.99487305 C56.09619598 12.72665268 56.09473572 13.45843231 56.0932312 14.21238708 C56.08941552 15.80734107 56.08328889 17.40229076 56.07516479 18.99722862 C56.06244048 21.52353637 56.05589494 24.04979181 56.05102539 26.5761261 C56.03762571 32.85597413 56.01350859 39.13577303 55.98962402 45.41558838 C55.96986741 50.71167027 55.95423179 56.0077333 55.94406128 61.30384254 C55.93759233 63.78875209 55.92507955 66.2735844 55.91235352 68.75846863 C55.90871853 70.29169651 55.90536711 71.82492509 55.90234375 73.3581543 C55.89717743 74.04566772 55.89201111 74.73318115 55.88668823 75.44152832 C55.88625651 79.39938974 56.23959003 83.11650116 57 87 C53.6719825 87.7482831 50.62491864 88.11671225 47.21655273 88.08178711 C46.2946666 88.0752562 45.37278046 88.06872528 44.42295837 88.06199646 C43.43646805 88.05056107 42.44997772 88.03912567 41.43359375 88.02734375 C39.31705898 88.01468761 37.20052243 88.00232739 35.08398438 87.99023438 C31.76874129 87.96553573 28.45359288 87.93766316 25.13842773 87.90405273 C21.92431088 87.87353364 18.71031081 87.85597284 15.49609375 87.83984375 C14.52377304 87.82638412 13.55145233 87.8129245 12.54966736 87.79905701 C-0.37010586 87.75281232 -12.41459086 89.64434659 -22.578125 98.16015625 C-32.13692655 107.89304193 -35.13765299 119.87789814 -35.11352539 133.22045898 C-35.11374443 134.24611717 -35.11374443 134.24611717 -35.1139679 135.29249573 C-35.11327755 137.52706197 -35.10552677 139.76154228 -35.09765625 141.99609375 C-35.09578895 143.55550593 -35.09436652 145.11491869 -35.09336853 146.67433167 C-35.08956796 150.75956876 -35.07975891 154.84476975 -35.06866455 158.92999268 C-35.05839731 163.10631828 -35.05385957 167.28264976 -35.04882812 171.45898438 C-35.03813423 179.6393394 -35.02108765 187.8196652 -35 196 C-23.45838284 196.04022593 -23.45838284 196.04022593 -11.921875 195.74609375 C-10.56250904 195.69571895 -9.20313374 195.64559585 -7.84375 195.59570312 C-5.78827402 195.51734547 -3.73294743 195.43679483 -1.67773438 195.35180664 C5.65245024 195.05330408 12.79433635 194.96041915 20.09619141 195.77075195 C23.66464642 196.05247209 27.20937568 196.03960102 30.78515625 195.9921875 C31.79740768 195.98032158 31.79740768 195.98032158 32.83010864 195.96821594 C35.62324805 195.9318395 38.41600841 195.88897263 41.20874023 195.82861328 C43.27592838 195.7864982 45.34265895 195.76294065 47.41015625 195.7421875 C48.62840088 195.7201123 49.84664551 195.69803711 51.10180664 195.67529297 C52.05821045 195.78244629 53.01461426 195.88959961 54 196 C54.66 196.99 55.32 197.98 56 199 C55.34 199 54.68 199 54 199 C53.93026222 200.13785194 53.93026222 200.13785194 53.8591156 201.2986908 C53.25762918 210.10838961 52.11516636 218.77852885 50.78515625 227.50390625 C50.5667975 228.95867865 50.34882362 230.41350885 50.13121033 231.86839294 C49.56239575 235.6635078 48.98790643 239.45774242 48.41229248 243.25183105 C47.94665706 246.32773856 47.48520962 249.40426742 47.02396488 252.48083591 C46.46669219 256.19708484 45.90739042 259.91302737 45.34765625 263.62890625 C45.24377153 264.31911928 45.13988682 265.00933231 45.03285408 265.72046089 C44.54514513 268.95577245 44.05234982 272.1901887 43.55227661 275.4236145 C43.18557747 277.79825332 42.82797398 280.17431545 42.47970581 282.55172729 C42.23149582 284.1772905 42.23149582 284.1772905 41.97827148 285.83569336 C41.83703354 286.78754013 41.69579559 287.7393869 41.55027771 288.72007751 C41 291 41 291 39 293 C13.92 293 -11.16 293 -37 293 C-37 377.48 -37 461.96 -37 549 C-69.34 549 -101.68 549 -135 549 C-135 465.51 -135 382.02 -135 296 C-138.56181487 294.81272838 -141.40103908 294.87288318 -145.16186523 294.87060547 C-145.88739594 294.86885315 -146.61292664 294.86710083 -147.36044312 294.86529541 C-149.75985096 294.86089268 -152.15918514 294.86380965 -154.55859375 294.8671875 C-156.22624221 294.86651393 -157.89389057 294.86554347 -159.5615387 294.86428833 C-163.05771824 294.86281344 -166.55387225 294.86495897 -170.05004883 294.86962891 C-174.5302379 294.87532165 -179.010367 294.87204875 -183.49055386 294.86605644 C-186.93492585 294.86244145 -190.37928366 294.86359382 -193.82365608 294.86618423 C-195.47546458 294.86685113 -197.12727436 294.86603335 -198.77908134 294.86370468 C-201.08900231 294.86116329 -203.39882647 294.86503995 -205.70874023 294.87060547 C-207.02317612 294.87140106 -208.337612 294.87219666 -209.69187927 294.87301636 C-212.86760814 294.85339551 -212.86760814 294.85339551 -215.26820374 295.69558716 C-216.12544289 295.84627151 -216.12544289 295.84627151 -217 296 C-218.93915673 294.49503316 -219.88746011 293.56961798 -220.36914349 291.13158894 C-220.36637811 290.4264173 -220.36361273 289.72124567 -220.36076355 288.9947052 C-220.36488754 288.18282242 -220.36901154 287.37093964 -220.3732605 286.53445435 C-220.35708176 285.20412674 -220.35708176 285.20412674 -220.34057617 283.84692383 C-220.34101425 282.91014297 -220.34145233 281.97336212 -220.34190369 281.00819397 C-220.33981139 277.90759538 -220.31645931 274.80753554 -220.29296875 271.70703125 C-220.28737437 269.55897823 -220.28310353 267.41092138 -220.28010559 265.26286316 C-220.26864441 259.60581924 -220.23916613 253.94900594 -220.20599365 248.29205322 C-220.17532029 242.52090576 -220.1616061 236.74972108 -220.14648438 230.97851562 C-220.11429777 219.65224236 -220.06308592 208.32614035 -220 197 C-216.36536963 196.16266991 -213.02837038 195.88248659 -209.30200195 195.90234375 C-208.17925369 195.90564697 -207.05650543 195.9089502 -205.8997345 195.91235352 C-204.69145493 195.92065186 -203.48317535 195.9289502 -202.23828125 195.9375 C-200.97847946 195.94128662 -199.71867767 195.94507324 -198.42070007 195.94897461 C-193.71198681 195.96322125 -189.00334818 195.98616321 -184.29467773 196.01037598 C-164.75560418 196.17385463 -164.75560418 196.17385463 -145.23046875 195.5625 C-144.50507401 195.52326416 -143.77967926 195.48402832 -143.03230286 195.44360352 C-139.39339343 195.22700607 -139.39339343 195.22700607 -136 194 C-135.99191315 192.88072617 -135.98382629 191.76145233 -135.97549438 190.60826111 C-135.89763347 180.00249704 -135.80979739 169.39685499 -135.71247292 158.79125118 C-135.66276396 153.34027024 -135.61643401 147.88930634 -135.578125 142.43823242 C-135.54094843 137.16669474 -135.49450583 131.89530912 -135.44193649 126.62390327 C-135.42356291 124.62395488 -135.40839388 122.6239741 -135.39665604 120.62397575 C-135.32756917 109.24766986 -134.89610874 98.23326296 -133 87 C-132.87121964 86.22984055 -132.74243927 85.45968109 -132.60975647 84.66618347 C-129.54512887 68.12326377 -121.86910005 52.75937832 -111 40 C-110.26910156 39.11957031 -109.53820312 38.23914063 -108.78515625 37.33203125 C-88.45328801 13.71276076 -59.71379476 3.76620423 -29.4609375 1.37109375 C-19.67026265 0.67328178 -9.81903936 0 0 0 Z " fill="#0F335F" transform="translate(597,280)"/>
<path d="M0 0 C1.58516805 -0.00087348 3.17033581 -0.00262709 4.75550205 -0.00517833 C9.08608787 -0.00962781 13.41657385 -0.00168138 17.74714696 0.00837779 C22.42661547 0.01704476 27.1060787 0.01408984 31.78555298 0.01257324 C39.8846742 0.01152644 47.98376311 0.01778161 56.08287621 0.02904892 C67.79271439 0.04532875 79.502537 0.05051447 91.21238527 0.0530249 C110.21254732 0.05739811 129.21269215 0.07069706 148.21284485 0.08963013 C166.66564345 0.10799861 185.11843738 0.12215038 203.57124329 0.13064575 C205.27845681 0.13143392 205.27845681 0.13143392 207.02015951 0.13223802 C212.73009772 0.13484816 218.44003596 0.13737556 224.14997423 0.13986182 C271.49166239 0.16058267 318.83333188 0.195798 366.17500305 0.24050903 C365.07874793 1.71743757 365.07874793 1.71743757 363.17500305 3.24050903 C360.30171615 3.61310452 360.30171615 3.61310452 356.71508503 3.60965252 C356.05315776 3.61311405 355.39123049 3.61657559 354.70924482 3.62014201 C352.47538295 3.62812783 350.24216055 3.61458749 348.0083313 3.60127258 C346.39706844 3.60257996 344.7858062 3.60520513 343.17454737 3.60904008 C338.73463055 3.61577031 334.2949295 3.60371766 329.85504019 3.5887059 C325.07181707 3.57578623 320.28860675 3.5801321 315.50537109 3.58241272 C307.21401891 3.58398804 298.92273738 3.57455187 290.63140297 3.5576992 C278.64344184 3.53334873 266.65551499 3.52550799 254.66753181 3.52173523 C235.21923787 3.51516453 215.77098161 3.49518661 196.32270813 3.46682739 C177.42720224 3.43930282 158.53170657 3.4180614 139.63618469 3.40530396 C137.88997454 3.4041217 137.88997454 3.4041217 136.1084874 3.40291556 C130.26851158 3.39900053 124.42853569 3.39520939 118.58855975 3.39147985 C70.11734813 3.36036469 21.64617743 3.30751208 -26.82499695 3.24050903 C-26.82499695 2.91050903 -26.82499695 2.58050903 -26.82499695 2.24050903 C-17.87835915 0.16553115 -9.13036704 -0.03765711 0 0 Z " fill="#CC952A" transform="translate(319.8249969482422,190.75949096679688)"/>
<path d="M0 0 C6.30407465 0.0023315 12.6081466 0.00254947 18.91222156 0.00148369 C20.28756784 0.00125384 20.28756784 0.00125384 21.6906989 0.00101934 C23.55608817 0.00069947 25.42147743 0.00037525 27.2868667 0.00004675 C44.49485094 -0.00275866 61.70282972 0.00040325 78.91081307 0.00584712 C93.58402808 0.01034511 108.25723521 0.00950517 122.93045009 0.00492836 C140.1710077 -0.00044708 157.41156066 -0.00251971 174.65211899 0.00054062 C176.49469957 0.00085905 178.33728014 0.00117342 180.17986072 0.00148369 C181.08545614 0.00163796 181.99105156 0.00179224 182.92408927 0.00195119 C189.22266673 0.00280491 195.52124116 0.00137927 201.81981815 -0.00099587 C209.48883012 -0.00382593 217.15783188 -0.00298753 224.82684271 0.00228488 C228.71744233 0.00487393 232.60802505 0.00601032 236.49862446 0.00263572 C255.69891806 -0.01269411 274.85071348 0.32986422 294.03518642 1.13529945 C294.03518642 1.79529945 294.03518642 2.45529945 294.03518642 3.13529945 C148.83518642 3.13529945 3.63518642 3.13529945 -145.96481358 3.13529945 C-145.96481358 2.47529945 -145.96481358 1.81529945 -145.96481358 1.13529945 C-97.30772931 0.3412298 -48.66329209 -0.01852419 0 0 Z " fill="#C98F25" transform="translate(436.9648135788739,135.8647005483508)"/>
<path d="M0 0 C28.05 0 56.1 0 85 0 C85 0.33 85 0.66 85 1 C57.61 1 30.22 1 2 1 C2 31.36 2 61.72 2 93 C29.72 93 57.44 93 86 93 C86.10438943 153.44148081 85.88202137 213.87287504 85.5 274.3125 C85.49402628 275.25870948 85.48805257 276.20491897 85.48189783 277.17980146 C85.32644367 301.78656871 85.16585124 326.39330066 85 351 C84.67 351 84.34 351 84 351 C84 267.51 84 184.02 84 98 C80.43818513 96.81272838 77.59896092 96.87288318 73.83813477 96.87060547 C73.11260406 96.86885315 72.38707336 96.86710083 71.63955688 96.86529541 C69.24014904 96.86089268 66.84081486 96.86380965 64.44140625 96.8671875 C62.77375779 96.86651393 61.10610943 96.86554347 59.4384613 96.86428833 C55.94228176 96.86281344 52.44612775 96.86495897 48.94995117 96.86962891 C44.4697621 96.87532165 39.989633 96.87204875 35.50944614 96.86605644 C32.06507415 96.86244145 28.62071634 96.86359382 25.17634392 96.86618423 C23.52453542 96.86685113 21.87272564 96.86603335 20.22091866 96.86370468 C17.91099769 96.86116329 15.60117353 96.86503995 13.29125977 96.87060547 C11.97682388 96.87140106 10.662388 96.87219666 9.30812073 96.87301636 C6.13239186 96.85339551 6.13239186 96.85339551 3.73179626 97.69558716 C2.87455711 97.84627151 2.87455711 97.84627151 2 98 C0.41193771 96.76698399 0.41193771 96.76698399 -1 95 C-1.25155616 91.90827912 -1.3196358 89.02658654 -1.2487793 85.9387207 C-1.23946381 85.01169342 -1.23014832 84.08466614 -1.22055054 83.12954712 C-1.18613841 80.06125623 -1.13025098 76.99374726 -1.07421875 73.92578125 C-1.04619055 71.80016247 -1.01949963 69.67452566 -0.99409485 67.5488739 C-0.92358664 61.95086949 -0.83487623 56.35329464 -0.74243164 50.75561523 C-0.63530752 44.04107563 -0.55068883 37.32621962 -0.46231842 30.61141205 C-0.32549588 20.40726054 -0.16000877 10.203933 0 0 Z " fill="#283854" transform="translate(378,478)"/>
<path d="M0 0 C0.33 0 0.66 0 1 0 C0.40217466 6.81520882 -0.83861157 13.37196462 -2.28125 20.05859375 C-4.23887473 30.16211773 -4.14785056 40.3384489 -4.14476013 50.58895874 C-4.14789826 52.26940832 -4.15147408 53.94985712 -4.15544754 55.63030493 C-4.16509919 60.22902916 -4.16868836 64.82774098 -4.17129052 69.42647386 C-4.17519833 74.3930255 -4.18483452 79.35956631 -4.19384766 84.32611084 C-4.20875958 92.92559971 -4.22031574 101.52508772 -4.22979546 110.1245842 C-4.24368526 122.56229245 -4.26487418 134.99998052 -4.28822399 147.43767424 C-4.32610773 167.6239721 -4.36108454 187.81027358 -4.39282227 207.99658203 C-4.39472276 209.20406737 -4.39662325 210.41155271 -4.39858133 211.65562852 C-4.42544248 228.81077788 -4.44931232 245.96593011 -4.47196633 263.12108548 C-4.47356363 264.33038997 -4.47516094 265.53969445 -4.47680664 266.78564453 C-4.47840011 267.99347589 -4.47999357 269.20130725 -4.48163532 270.44573955 C-4.50837634 290.56483129 -4.54275979 310.68390126 -4.58346039 330.80296957 C-4.60826159 343.21485325 -4.62657358 355.6267135 -4.636616 368.03861804 C-4.64399146 376.53445004 -4.658494 385.03025054 -4.67868023 393.5260617 C-4.69010029 398.43183438 -4.69820391 403.33755619 -4.69767189 408.24334335 C-4.69724581 412.7298604 -4.70590077 417.21626279 -4.72192169 421.7027504 C-4.72609381 423.32969378 -4.72685873 424.95665002 -4.72395759 426.58359616 C-4.72050859 428.78756519 -4.72922354 430.99115739 -4.74108028 433.19508934 C-4.74281653 434.42148136 -4.74455278 435.64787339 -4.74634165 436.91142881 C-4.98794695 439.85324082 -5.45376598 441.52510605 -7 444 C-7.06871438 391.54822744 -7.12155329 339.09645944 -7.15319599 286.6446507 C-7.15694797 280.44775209 -7.16083095 274.25085356 -7.16479492 268.05395508 C-7.16558185 266.82029984 -7.16636878 265.5866446 -7.16717956 264.31560587 C-7.18022213 244.35844298 -7.20386965 224.4013061 -7.23145839 204.44415862 C-7.25954455 183.95582332 -7.27618305 163.46750161 -7.28226548 142.97914785 C-7.28637526 130.34375565 -7.29934081 117.70843698 -7.3237494 105.07306742 C-7.33964623 96.40044678 -7.34439143 87.72786399 -7.34050413 79.05522985 C-7.33858873 74.05674072 -7.34145879 69.05837979 -7.35761642 64.05991364 C-7.37233455 59.47299164 -7.37287602 54.88628273 -7.36269668 50.29935043 C-7.36144066 48.65033316 -7.36514463 47.00130198 -7.37464955 45.35231162 C-7.46021695 29.57465942 -5.12768064 14.96658055 0 0 Z " fill="#CA9129" transform="translate(198,276)"/>
<path d="M0 0 C3.36592567 5.0488885 3.12530253 10.26580801 3.12863445 16.2015934 C3.13038749 16.90728476 3.13214053 17.61297612 3.13394669 18.34005207 C3.13859845 20.70463655 3.1361433 23.06915931 3.13371277 25.43374634 C3.13558116 27.14628982 3.13788198 28.85883287 3.14057809 30.57137525 C3.14669913 35.27771136 3.14656213 39.98402971 3.14538372 44.69036889 C3.14517978 49.76620778 3.15069782 54.84204096 3.15544128 59.9178772 C3.16375045 69.8633054 3.16649626 79.80872767 3.16705366 89.75415905 C3.16752877 97.83934557 3.16958325 105.92453013 3.17275429 114.00971603 C3.18156218 136.933892 3.18617354 159.85806328 3.18542381 182.78224094 C3.18538386 184.018286 3.1853439 185.25433106 3.18530273 186.52783203 C3.18526185 187.76538704 3.18522097 189.00294205 3.18517885 190.27799873 C3.18477251 210.32868364 3.19433865 230.37934976 3.2084411 250.43002923 C3.22280789 271.0191044 3.22971109 291.60817041 3.22884732 312.19725072 C3.22851542 323.75588421 3.23125943 335.31449801 3.24202538 346.87312698 C3.25113443 356.715992 3.25330234 366.5588284 3.24651595 376.4016958 C3.24325259 381.42185472 3.24318742 386.44195875 3.2518692 391.46211243 C3.25974337 396.06268589 3.25829337 400.66316103 3.24958507 405.26373212 C3.24805209 406.9232443 3.2498586 408.58276384 3.25544515 410.24226733 C3.28402363 419.33801412 2.89776281 428.05808667 1 437 C0.67 437 0.34 437 0 437 C0 292.79 0 148.58 0 0 Z " fill="#CB9128" transform="translate(830,295)"/>
<path d="M0 0 C144.21 0.33 288.42 0.66 437 1 C437 1.66 437 2.32 437 3 C412.56256563 3.99045033 388.15635586 4.13625137 363.701545 4.09125566 C359.29241725 4.08394048 354.8832891 4.08040483 350.47415704 4.07674873 C336.05927881 4.06456985 321.64443283 4.03980482 307.22957771 4.0119052 C302.28750539 4.00236357 297.34543227 3.99337084 292.40335846 3.9846344 C254.50859739 3.91746229 216.61393846 3.82806868 178.71929359 3.71245193 C175.44380322 3.7024829 172.16831278 3.69254 168.89282227 3.68261719 C167.67431426 3.67891893 167.67431426 3.67891893 166.43118994 3.67514595 C153.01317318 3.63462271 139.5951478 3.60215808 126.17710311 3.57250018 C112.17627846 3.54140921 98.1754892 3.50290802 84.17470449 3.45720994 C76.39980348 3.43202403 68.62492385 3.41004095 60.84999275 3.39665604 C54.31014697 3.38539343 47.77036274 3.36750107 41.23056085 3.34083296 C37.90927823 3.32749486 34.58812964 3.31838728 31.26681137 3.31578636 C27.66707832 3.31246043 24.06759319 3.29697885 20.46791077 3.2784729 C19.42890989 3.28040763 18.38990901 3.28234237 17.31942326 3.28433573 C11.24944296 3.23766379 5.87989533 2.52713932 0 1 C0 0.67 0 0.34 0 0 Z " fill="#CD972B" transform="translate(289,884)"/>
<path d="M0 0 C0.66 0 1.32 0 2 0 C1.92964808 1.09280112 1.85929616 2.18560224 1.78681237 3.31151855 C1.11852554 14.15351469 0.84804795 24.94515665 0.84178162 35.80569458 C0.83720081 37.52064846 0.83219865 39.23560126 0.82681805 40.95055282 C0.81340016 45.60733055 0.80586683 50.2641011 0.79939139 54.92089295 C0.79131444 59.96357694 0.77764234 65.00624631 0.76467896 70.04891968 C0.74301863 78.76722882 0.7248365 87.48553951 0.70907402 96.20386124 C0.68627952 108.80880835 0.65815046 121.41373921 0.62875474 134.01867245 C0.58119562 154.47354135 0.53790013 174.92841694 0.49731445 195.38330078 C0.45789986 215.2433321 0.41645953 235.10335751 0.37231445 254.96337891 C0.36959018 256.18929206 0.36686591 257.41520522 0.36405908 258.67826726 C0.35037862 264.82883327 0.33665854 270.97939919 0.32291877 277.12996507 C0.20913767 328.086631 0.10228808 379.04330979 0 430 C-0.66 429.67 -1.32 429.34 -2 429 C-2.04581001 376.80300979 -2.08103575 324.60602161 -2.10213066 272.40901524 C-2.10463198 266.24215922 -2.10722063 260.07530323 -2.10986328 253.90844727 C-2.1103879 252.68077326 -2.11091252 251.45309925 -2.11145304 250.188223 C-2.12014798 230.32806564 -2.13591294 210.46791991 -2.15430559 190.60776944 C-2.17302998 170.21887433 -2.18412209 149.82998529 -2.18817699 129.44108194 C-2.19091678 116.86712641 -2.19956017 104.29320372 -2.21583293 91.7192583 C-2.22643116 83.08869172 -2.22959421 74.45814204 -2.22700275 65.82756943 C-2.22572588 60.85341138 -2.2276386 55.8793106 -2.23841095 50.90516281 C-2.24822372 46.3404833 -2.24858347 41.77589895 -2.24179779 37.21121483 C-2.24096051 35.57027528 -2.24342912 33.9293295 -2.24976636 32.28840197 C-2.28939709 21.38180249 -1.49684886 10.80478636 0 0 Z " fill="#C98E26" transform="translate(137,287)"/>
<path d="M0 0 C0.33 0.66 0.66 1.32 1 2 C0.34 2.66 -0.32 3.32 -1 4 C-2.98 3.505 -2.98 3.505 -5 3 C-28.1 2.67 -51.2 2.34 -75 2 C-75 86.15 -75 170.3 -75 257 C-53.715 256.505 -53.715 256.505 -32 256 C-22.74166055 255.91882009 -13.48836595 255.85735565 -4.23046875 255.8671875 C-1.85923757 255.86650878 0.51199354 255.86553413 2.88322449 255.86428833 C7.7461313 255.86284629 12.60901927 255.8648549 17.47192383 255.86962891 C23.66510615 255.87541818 29.85824599 255.8719681 36.05142689 255.86605644 C40.9029726 255.86243335 45.75450828 255.86359588 50.60605431 255.86618423 C52.89154758 255.86684389 55.1770418 255.86605935 57.46253395 255.86370468 C69.01923973 255.85437204 80.48583214 255.89047319 92 257 C92 257.33 92 257.66 92 258 C87.87071847 258.77822689 83.97390148 259.12549613 79.77432251 259.12698364 C77.9257002 259.13121716 77.9257002 259.13121716 76.03973198 259.13553619 C74.68355164 259.13359144 73.32737144 259.13154055 71.97119141 259.12939453 C70.52829508 259.13073053 69.08539909 259.13248937 67.64250374 259.13463593 C63.70595949 259.13915327 59.76944093 259.13732506 55.83289623 259.13422441 C52.49435334 259.13232474 49.15581589 259.13392639 45.81727314 259.13556135 C36.87675551 259.13991798 27.93625384 259.1370132 18.99573803 259.13056505 C12.50254978 259.1259175 6.00936406 259.12352164 -0.48382568 259.12231445 C-57.66082408 259.10961492 -114.82847537 258.84968731 -172 258 C-172 257.67 -172 257.34 -172 257 C-140.32 257 -108.64 257 -76 257 C-76 172.52 -76 88.04 -76 1 C-50.92 0.67 -25.84 0.34 0 0 Z " fill="#90825A" transform="translate(636,572)"/>
<path d="M0 0 C0.66 0.33 1.32 0.66 2 1 C2.04577349 53.82571907 2.08101721 106.65143614 2.10213066 159.47717115 C2.10463208 165.71313366 2.10722073 171.94909614 2.10986328 178.18505859 C2.1103879 179.42653123 2.11091252 180.66800388 2.11145304 181.9470969 C2.12015665 202.05124459 2.1359264 222.15538086 2.15430559 242.25952177 C2.17300584 262.8868157 2.18411699 283.51410364 2.18817699 304.1414057 C2.19092178 316.87046413 2.19959241 329.59949025 2.21583293 342.32853873 C2.22640134 351.05623587 2.22960094 359.7839163 2.22700275 368.51161937 C2.22572125 373.54769305 2.22769175 378.58371023 2.23841095 383.61977386 C2.24815799 388.23281465 2.24862543 392.84576106 2.24179779 397.45880623 C2.24095418 399.12519306 2.24347888 400.79158583 2.24976636 402.45796101 C2.27947769 410.8205145 2.19714612 418.85757026 0 427 C-0.33 427 -0.66 427 -1 427 C-0.67 286.09 -0.34 145.18 0 0 Z " fill="#C98D28" transform="translate(887,303)"/>
<path d="M0 0 C0.33 0 0.66 0 1 0 C-0.52983725 19.52983725 -0.52983725 19.52983725 -2 21 C-27.08 21 -52.16 21 -78 21 C-78 105.48 -78 189.96 -78 277 C-110.01 277 -142.02 277 -175 277 C-175 222.55 -175 168.1 -175 112 C-174.67 112 -174.34 112 -174 112 C-174 166.12 -174 220.24 -174 276 C-142.65 276 -111.3 276 -79 276 C-79.00523682 268.25023682 -79.01047363 260.50047363 -79.01586914 252.51586914 C-79.03190326 227.7480487 -79.04303564 202.98022839 -79.05106533 178.21240414 C-79.05231611 174.36824662 -79.05361042 170.52408913 -79.05493164 166.67993164 C-79.05519395 165.91459657 -79.05545626 165.1492615 -79.05572652 164.36073446 C-79.06008338 151.9521433 -79.06797101 139.54355676 -79.0771528 127.13496835 C-79.08648891 114.41215419 -79.09205552 101.68934246 -79.09408849 88.96652502 C-79.09546381 81.10950553 -79.09981487 73.25249908 -79.10791647 65.39548361 C-79.11380407 59.38094544 -79.11445907 53.3664186 -79.11310768 47.35187721 C-79.11338421 44.87702097 -79.11539198 42.40216426 -79.11920547 39.92731094 C-79.12413572 36.5645235 -79.12300077 33.20179311 -79.12025452 29.83900452 C-79.12316736 28.84583459 -79.1260802 27.85266467 -79.12908131 26.82939869 C-79.12609474 25.48878822 -79.12609474 25.48878822 -79.12304783 24.1210947 C-79.12342755 23.34380719 -79.12380727 22.56651967 -79.1241985 21.76567799 C-79 20 -79 20 -78 19 C-75.65746218 18.90507278 -73.34453896 18.87440209 -71.00170898 18.88647461 C-69.90421326 18.88625557 -69.90421326 18.88625557 -68.7845459 18.8860321 C-66.35503216 18.88673133 -63.92559417 18.89452415 -61.49609375 18.90234375 C-59.81600486 18.9042079 -58.13591543 18.90563181 -56.45582581 18.90663147 C-52.02526357 18.91045693 -47.5947339 18.92028744 -43.16418457 18.93133545 C-38.64657024 18.94154897 -34.12895066 18.94612896 -29.61132812 18.95117188 C-20.74087107 18.96190969 -11.87043824 18.97898644 -3 19 C-2.86722656 17.96359375 -2.73445312 16.9271875 -2.59765625 15.859375 C-2.41939361 14.48956735 -2.24100138 13.11977656 -2.0625 11.75 C-1.93198242 10.72712891 -1.93198242 10.72712891 -1.79882812 9.68359375 C-1.3684062 6.39963389 -0.91205869 3.18809706 0 0 Z " fill="#000631" transform="translate(638,552)"/>
<path d="M0 0 C0.33 0 0.66 0 1 0 C1.09498779 0.75394043 1.18997559 1.50788086 1.2878418 2.28466797 C3.20127426 17.20376336 5.29114407 31.69035071 10 46 C10.37898437 47.20140625 10.75796875 48.4028125 11.1484375 49.640625 C18.50977148 71.675222 31.24112774 91.74947398 46.9453125 108.7578125 C48.71689757 110.69106313 50.39782341 112.66289334 52.0625 114.6875 C72.86492402 139.10873481 104.69995857 153.7708273 135 162 C135 162.33 135 162.66 135 163 C129.34441128 163.2968813 124.95115755 162.35506683 119.625 160.5 C118.84116943 160.23010254 118.05733887 159.96020508 117.24975586 159.68212891 C91.10865395 150.42376734 68.12628094 134.96597132 49 115 C48.18015625 114.19046875 47.3603125 113.3809375 46.515625 112.546875 C22.01025462 87.73709008 6.10326544 54.86426972 0.4296875 20.55078125 C0.13089603 18.01810505 0.13089603 18.01810505 -1 16 C-0.91075148 13.2764805 -0.76646668 10.58986689 -0.5625 7.875 C-0.51029297 7.12089844 -0.45808594 6.36679687 -0.40429688 5.58984375 C-0.27454996 3.7262063 -0.13792512 1.86305004 0 0 Z " fill="#CA9027" transform="translate(137,718)"/>
<path d="M0 0 C5.27626534 0.53714557 9.6630626 1.85621998 14.5 4.0625 C15.19287109 4.37413086 15.88574219 4.68576172 16.59960938 5.00683594 C34.6362919 13.23883682 50.59830967 23.30775254 65 37 C66.34843502 38.15257295 67.70219808 39.29895704 69.0625 40.4375 C88.23931263 57.19280065 106.699484 83.39266636 114 108 C114 108.99 114 109.98 114 111 C114.66 111.33 115.32 111.66 116 112 C116.81555591 114.36034977 117.50423249 116.65054757 118.125 119.0625 C118.30385742 119.7419165 118.48271484 120.42133301 118.66699219 121.12133789 C119.87090868 125.91808517 120.40071373 130.09125681 120 135 C118.20648757 132.30973135 117.57812598 130.89419803 116.8515625 127.8671875 C116.65296631 127.06531006 116.45437012 126.26343262 116.24975586 125.43725586 C116.04358643 124.59171143 115.83741699 123.74616699 115.625 122.875 C114.13762453 116.99846786 112.64969347 111.39572476 109.94921875 105.94140625 C108.89970668 103.79487333 108.08365984 101.61386812 107.25 99.375 C95.61640713 70.33576242 73.78489397 45.56246289 49 27 C48.15695312 26.36191406 47.31390625 25.72382813 46.4453125 25.06640625 C32.2872601 14.74580577 16.24732229 7.37715411 0 1 C0 0.67 0 0.34 0 0 Z " fill="#CB9229" transform="translate(764,145)"/>
<path d="M0 0 C0.33 0 0.66 0 1 0 C1 34.98 1 69.96 1 106 C-27.38 106 -55.76 106 -85 106 C-85 133.39 -85 160.78 -85 189 C-85.33 189 -85.66 189 -86 189 C-86 161.28 -86 133.56 -86 105 C-82.11297585 104.22259517 -79.18260483 103.8816647 -75.30200195 103.90234375 C-74.17925369 103.90564697 -73.05650543 103.9089502 -71.8997345 103.91235352 C-70.69145493 103.92065186 -69.48317535 103.9289502 -68.23828125 103.9375 C-66.97847946 103.94128662 -65.71867767 103.94507324 -64.42070007 103.94897461 C-59.71198681 103.96322125 -55.00334818 103.98616321 -50.29467773 104.01037598 C-30.75560418 104.17385463 -30.75560418 104.17385463 -11.23046875 103.5625 C-10.50507401 103.52326416 -9.77967926 103.48402832 -9.03230286 103.44360352 C-5.39339343 103.22700607 -5.39339343 103.22700607 -2 102 C-1.98969254 100.86962311 -1.97938507 99.73924622 -1.96876526 98.57461548 C-1.87077964 87.89375875 -1.76802321 77.21295703 -1.66066074 66.53219032 C-1.60562348 61.04182459 -1.55223547 55.55145337 -1.50268555 50.06103516 C-1.45475723 44.75715165 -1.40240656 39.45332815 -1.34705925 34.14951706 C-1.32676392 32.13146851 -1.30803081 30.11340359 -1.29092598 28.09532547 C-1.26659548 25.25701267 -1.23658375 22.41881022 -1.20532227 19.58056641 C-1.1995668 18.75625122 -1.19381134 17.93193604 -1.18788147 17.0826416 C-1.11658927 11.34471943 -0.65154161 5.70031569 0 0 Z " fill="#4F687E" transform="translate(463,372)"/>
<path d="M0 0 C35.24955434 -1.06104521 35.24955434 -1.06104521 51 5 C51.69432129 5.26232422 52.38864258 5.52464844 53.10400391 5.79492188 C71.08752372 12.75951697 85.90084262 22.90792529 100 36 C100.72960937 36.64066406 101.45921875 37.28132813 102.2109375 37.94140625 C117.84403446 52.36110398 133.22344452 78.24133175 134.125 100.01953125 C134.08375 100.67308594 134.0425 101.32664062 134 102 C132 101 132 101 131.34912109 99.22851562 C131.06415771 98.07899414 131.06415771 98.07899414 130.7734375 96.90625 C130.43916748 95.62028931 130.43916748 95.62028931 130.09814453 94.30834961 C129.85950684 93.38159424 129.62086914 92.45483887 129.375 91.5 C124.45570229 73.44669975 116.47928333 57.4032475 103.46875 43.7421875 C102 42 102 42 102 40 C101.41347656 39.74476563 100.82695313 39.48953125 100.22265625 39.2265625 C97.77992422 37.87855221 96.32476943 36.42124029 94.4375 34.375 C87.17351491 26.93581675 78.23658523 20.77193444 69 16 C68.34 16 67.68 16 67 16 C67 15.34 67 14.68 67 14 C66.15953125 13.72929687 65.3190625 13.45859375 64.453125 13.1796875 C61.49443678 12.16891392 58.603091 11.05616545 55.7019043 9.89331055 C37.27506638 2.64011994 19.73964791 1.25493199 0 1 C0 0.67 0 0.34 0 0 Z " fill="#CE972B" transform="translate(696,192)"/>
<path d="M0 0 C11.56181824 -0.04645585 23.12361406 -0.08193637 34.68550682 -0.10362434 C40.05485723 -0.11403642 45.42414352 -0.1281484 50.79345703 -0.15087891 C55.98059337 -0.17269935 61.16766824 -0.18458798 66.35484695 -0.18975449 C68.32826326 -0.19343377 70.30167642 -0.20061828 72.27506638 -0.21146011 C75.05112583 -0.22609746 77.82693517 -0.22797286 80.60302734 -0.22705078 C81.40864105 -0.23424133 82.21425476 -0.24143188 83.04428101 -0.24884033 C88.88475815 -0.22801418 94.31557147 0.6853086 100 2 C100 2.33 100 2.66 100 3 C88.43818176 3.04645585 76.87638594 3.08193637 65.31449318 3.10362434 C59.94514277 3.11403642 54.57585648 3.1281484 49.20654297 3.15087891 C44.01940663 3.17269935 38.83233176 3.18458798 33.64515305 3.18975449 C31.67173674 3.19343377 29.69832358 3.20061828 27.72493362 3.21146011 C24.94887417 3.22609746 22.17306483 3.22797286 19.39697266 3.22705078 C18.59135895 3.23424133 17.78574524 3.24143188 16.95571899 3.24884033 C11.11524185 3.22801418 5.68442853 2.3146914 0 1 C0 0.67 0 0.34 0 0 Z " fill="#CF982C" transform="translate(289,828)"/>
<path d="M0 0 C0.33 0 0.66 0 1 0 C1.33 22.44 1.66 44.88 2 68 C13.55531185 68.02912494 13.55531185 68.02912494 25.078125 67.74609375 C26.43749096 67.69571895 27.79686626 67.64559585 29.15625 67.59570312 C31.21172598 67.51734547 33.26705257 67.43679483 35.32226562 67.35180664 C42.65245024 67.05330408 49.79433635 66.96041915 57.09619141 67.77075195 C60.66464642 68.05247209 64.20937568 68.03960102 67.78515625 67.9921875 C68.45999054 67.98427689 69.13482483 67.97636627 69.83010864 67.96821594 C72.62324805 67.9318395 75.41600841 67.88897263 78.20874023 67.82861328 C80.27592838 67.7864982 82.34265895 67.76294065 84.41015625 67.7421875 C85.62840088 67.7201123 86.84664551 67.69803711 88.10180664 67.67529297 C89.05821045 67.78244629 90.01461426 67.88959961 91 68 C91.99 69.485 91.99 69.485 93 71 C92.34 71 91.68 71 91 71 C91 72.98 91 74.96 91 77 C90.67 77 90.34 77 90 77 C90 74.69 90 72.38 90 70 C60.3 70 30.6 70 0 70 C0 46.9 0 23.8 0 0 Z " fill="#496380" transform="translate(560,408)"/>
<path d="M0 0 C-0.33 0.66 -0.66 1.32 -1 2 C-32.57994174 2.07146742 -64.15136998 1.89843635 -95.72918701 1.53643799 C-101.20941097 1.47419707 -106.68966784 1.41499175 -112.16992188 1.35546875 C-122.77998055 1.23981278 -133.39000128 1.12102309 -144 1 C-144 0.67 -144 0.34 -144 0 C-127.58726142 -0.15461547 -111.17447819 -0.3026221 -94.76161194 -0.4429636 C-87.13922037 -0.50829108 -79.51685836 -0.57570448 -71.89453125 -0.64819336 C-65.24359899 -0.71143873 -58.59264444 -0.77060241 -51.94163418 -0.82505554 C-48.42664094 -0.85397098 -44.91169012 -0.88480036 -41.39675903 -0.92053413 C-13.28377212 -1.20387892 -13.28377212 -1.20387892 0 0 Z " fill="#BD9238" transform="translate(608,829)"/>
<path d="M0 0 C0.33 0 0.66 0 1 0 C-0.52983725 19.52983725 -0.52983725 19.52983725 -2 21 C-4.37300869 21.09494733 -6.71678703 21.12559319 -9.09008789 21.11352539 C-9.83150528 21.11367142 -10.57292267 21.11381744 -11.33680725 21.1139679 C-13.79878621 21.11326865 -16.26069043 21.10547574 -18.72265625 21.09765625 C-20.42516539 21.09579211 -22.12767507 21.09436819 -23.83018494 21.09336853 C-28.31993073 21.08954302 -32.80964438 21.07971247 -37.29937744 21.06866455 C-41.87731491 21.05845113 -46.45525756 21.05387106 -51.03320312 21.04882812 C-60.02214957 21.03809022 -69.01107212 21.02101341 -78 21 C-78 20.34 -78 19.68 -78 19 C-53.25 19 -28.5 19 -3 19 C-2.34 14.05 -1.68 9.1 -1 4 C-0.67 2.68 -0.34 1.36 0 0 Z " fill="#0D183B" transform="translate(638,552)"/>
<path d="M0 0 C5.94 0 11.88 0 18 0 C18.02261364 9.67516041 18.04095138 19.3503032 18.05181217 29.02548409 C18.05702542 33.51830148 18.06409476 38.01109982 18.07543945 42.50390625 C18.08632372 46.84163474 18.09228858 51.17934493 18.09487724 55.51708603 C18.09672151 57.17003543 18.10032288 58.82298386 18.10573006 60.47592545 C18.11301402 62.79533281 18.11398784 65.11466502 18.11352539 67.43408203 C18.115746 68.75312531 18.11796661 70.07216858 18.12025452 71.43118286 C18.00947349 74.71885336 17.62888755 77.77568344 17 81 C16.67 81 16.34 81 16 81 C15.67 54.6 15.34 28.2 15 1 C10.05 1 5.1 1 0 1 C0 0.67 0 0.34 0 0 Z " fill="#394A62" transform="translate(635,285)"/>
<path d="M0 0 C0 0.66 0 1.32 0 2 C-7.00334143 3.333688 -14.00285272 3.09132588 -21.10522461 3.02172852 C-22.53480725 3.01157332 -23.96439325 3.00188101 -25.39398193 2.99261475 C-29.25919308 2.96625793 -33.12432541 2.93345376 -36.98947597 2.89946485 C-41.03466867 2.86499819 -45.07990338 2.83649867 -49.12513733 2.80735779 C-56.77833132 2.75132363 -64.43147269 2.68994708 -72.08460957 2.62663645 C-80.80041565 2.5547961 -89.51626374 2.48893381 -98.23212039 2.42356598 C-116.15480163 2.28901459 -134.0774166 2.14698087 -152 2 C-152 1.67 -152 1.34 -152 1 C-133.51055447 0.86923113 -115.02110642 0.73882537 -96.53165531 0.60884857 C-87.94615115 0.54848594 -79.36064785 0.48800575 -70.77514648 0.42724609 C-63.28960233 0.37427114 -55.80405664 0.32151952 -48.31850904 0.26903296 C-44.35720069 0.24124965 -40.39589317 0.21335664 -36.43458748 0.18519592 C-32.70085206 0.15865653 -28.96711465 0.13241731 -25.23337555 0.10640144 C-23.22049818 0.09229999 -21.207623 0.07788642 -19.19474792 0.0634613 C-12.7963039 0.01917233 -6.39859686 -0.01015312 0 0 Z " fill="#D4A230" transform="translate(743,883)"/>
<path d="M0 0 C0.66 0 1.32 0 2 0 C-2.34076442 14.55041952 -12.39634689 25.58425153 -23 36 C-23.80566406 36.79277344 -24.61132812 37.58554687 -25.44140625 38.40234375 C-33.70726689 46.08974637 -44.27171902 54.21354789 -55 58 C-55.66 57.67 -56.32 57.34 -57 57 C-55.3603125 55.9790625 -55.3603125 55.9790625 -53.6875 54.9375 C-52.9553125 54.47730469 -52.223125 54.01710938 -51.46875 53.54296875 C-49.78823491 52.49264682 -48.10038124 51.45399644 -46.40625 50.42578125 C-26.10148731 37.91034563 -10.66586366 21.24501297 0 0 Z " fill="#CF952A" transform="translate(819,762)"/>
<path d="M0 0 C0.33 0 0.66 0 1 0 C1.37804464 6.08980599 0.08690637 10.94401775 -1.875 16.6875 C-2.18671143 17.60378174 -2.49842285 18.52006348 -2.81958008 19.46411133 C-11.00464671 42.67071458 -24.4098761 64.7157913 -42 82 C-42.66 81.67 -43.32 81.34 -44 81 C-43.47792969 80.45214844 -42.95585938 79.90429688 -42.41796875 79.33984375 C-31.8068 67.91100175 -23.21067266 55.49717936 -15.91650391 41.72753906 C-15.14095489 40.26568908 -14.34425585 38.81508965 -13.54296875 37.3671875 C-7.33647811 25.74233201 -3.72140537 12.58710638 0 0 Z " fill="#C88D26" transform="translate(882,749)"/>
<path d="M0 0 C3.55133433 3.14215885 5.27670392 6.27584952 7.25 10.5625 C12.4582006 21.42022619 19.74893592 30.28428555 28 39 C28.75539062 39.80824219 29.51078125 40.61648438 30.2890625 41.44921875 C35.36361153 46.72430838 40.45708045 50.72854023 47 54 C48.66666667 55.33333333 50.33333333 56.66666667 52 58 C52.99 58.495 52.99 58.495 54 59 C54 59.66 54 60.32 54 61 C48.5863236 59.5691829 44.81533992 57.02974479 40.4375 53.6875 C39.73931152 53.15624512 39.04112305 52.62499023 38.32177734 52.07763672 C22.45078232 39.74556664 3.8278407 20.65985254 0 0 Z " fill="#CC9329" transform="translate(200,755)"/>
<path d="M0 0 C1.32 1.32 2.64 2.64 4 4 C0.45921359 5.09561691 -2.81899445 5.12057444 -6.51269531 5.11352539 C-7.47917496 5.11374443 -7.47917496 5.11374443 -8.46517944 5.1139679 C-10.58619603 5.1132735 -12.70712383 5.10550336 -14.828125 5.09765625 C-16.30214388 5.09579039 -17.77616338 5.09436728 -19.25018311 5.09336853 C-23.12338992 5.08955661 -26.99655903 5.07973765 -30.86975098 5.06866455 C-34.82462046 5.05842193 -38.77949606 5.0538648 -42.734375 5.04882812 C-50.48960049 5.03811418 -58.24479496 5.02105369 -66 5 C-66 4.67 -66 4.34 -66 4 C-53.95519555 2.38432286 -42.14200135 1.70627616 -29.99169922 1.79418945 C-27.34202643 1.81273074 -24.69270048 1.81469618 -22.04296875 1.81445312 C-20.32812201 1.81936103 -18.6132776 1.82518614 -16.8984375 1.83203125 C-15.73264664 1.83370049 -15.73264664 1.83370049 -14.54330444 1.83540344 C-9.61837241 1.87774164 -4.87708939 2.30677979 0 3 C0 2.01 0 1.02 0 0 Z " fill="#CC9227" transform="translate(456,826)"/>
<path d="M0 0 C-1.11181641 0.56654297 -1.11181641 0.56654297 -2.24609375 1.14453125 C-21.36151729 11.13508921 -38.14581224 23.2915778 -53 39 C-53.495 37.515 -53.495 37.515 -54 36 C-44.59645359 26.07829899 -14.78557033 -5.24003282 0 0 Z " fill="#CB9127" transform="translate(240,154)"/>
<path d="M0 0 C0.99 0.33 1.98 0.66 3 1 C2.20078125 1.93457031 1.4015625 2.86914062 0.578125 3.83203125 C-10.62189816 17.14526633 -20.0636623 31.51021809 -28 47 C-29.14602418 43.5736407 -29.05472385 43.12085995 -27.4453125 39.56640625 C-26.68640102 38.22345777 -25.91195217 36.88921155 -25.125 35.5625 C-24.71805908 34.85891357 -24.31111816 34.15532715 -23.8918457 33.43041992 C-19.37589835 25.73725851 -14.46950204 18.22133019 -8.80078125 11.32421875 C-6.83216348 9.04825956 -6.83216348 9.04825956 -6 6 C-4.35360035 4.64172029 -2.68704193 3.30745749 -1 2 C-0.67 1.34 -0.34 0.68 0 0 Z " fill="#CC9228" transform="translate(182,194)"/>
<path d="M0 0 C0.33 0.99 0.66 1.98 1 3 C0.5153125 3.49886719 0.030625 3.99773437 -0.46875 4.51171875 C-10.89548185 15.68035268 -18.52801502 29.76221383 -24 44 C-24.66 44 -25.32 44 -26 44 C-21.08442545 27.22921624 -11.65137397 12.87783439 0 0 Z " fill="#CB9228" transform="translate(225,231)"/>
<path d="M0 0 C0 0.66 0 1.32 0 2 C-0.99 2 -1.98 2 -3 2 C-3.33 2.66 -3.66 3.32 -4 4 C-5.65919896 4.36871088 -7.327893 4.69512776 -9 5 C-20.05936304 8.88442069 -30.40676379 14.46763743 -39.37890625 22.03125 C-39.91386719 22.3509375 -40.44882813 22.670625 -41 23 C-41.99 22.67 -42.98 22.34 -44 22 C-37.17305656 16.35857368 -30.14455435 11.75587252 -22.3125 7.625 C-21.52963623 7.20879395 -20.74677246 6.79258789 -19.94018555 6.36376953 C-13.5676682 3.07822235 -7.25995858 0 0 0 Z " fill="#CC9328" transform="translate(283,196)"/>
<path d="M0 0 C1.09505859 0.00902344 2.19011719 0.01804688 3.31835938 0.02734375 C5.98331354 0.05061846 8.64778134 0.08330865 11.3125 0.125 C11.8075 1.61 11.8075 1.61 12.3125 3.125 C0.4325 3.125 -11.4475 3.125 -23.6875 3.125 C-23.6875 2.795 -23.6875 2.465 -23.6875 2.125 C-15.70844584 0.36203549 -8.15592799 -0.12985556 0 0 Z " fill="#CF992C" transform="translate(316.6875,190.875)"/>
<path d="M0 0 C1.32 1.32 2.64 2.64 4 4 C0.52334905 5.06888524 -2.67137478 5.11475767 -6.296875 5.09765625 C-7.50214844 5.09443359 -8.70742188 5.09121094 -9.94921875 5.08789062 C-11.20347656 5.07951172 -12.45773437 5.07113281 -13.75 5.0625 C-15.01972656 5.05798828 -16.28945313 5.05347656 -17.59765625 5.04882812 C-20.73181836 5.03704556 -23.86588541 5.02059416 -27 5 C-27.33 4.01 -27.66 3.02 -28 2 C-24.83335334 1.97059542 -21.66674253 1.95306685 -18.5 1.9375 C-17.613125 1.92912109 -16.72625 1.92074219 -15.8125 1.91210938 C-10.44176914 1.89236404 -5.31366337 2.21164107 0 3 C0 2.01 0 1.02 0 0 Z " fill="#CB982F" transform="translate(456,826)"/>
<path d="M0 0 C4.80546679 -0.07405295 9.6106029 -0.12855497 14.41650391 -0.16479492 C16.05197941 -0.17989911 17.68741429 -0.20038389 19.32275391 -0.22631836 C21.67100024 -0.26263145 24.01871205 -0.27970932 26.3671875 -0.29296875 C27.10057343 -0.30845261 27.83395935 -0.32393646 28.58956909 -0.33988953 C30.65185547 -0.34057617 30.65185547 -0.34057617 34 0 C34.66 0.99 35.32 1.98 36 3 C35.34 3 34.68 3 34 3 C34 4.98 34 6.96 34 9 C33.67 9 33.34 9 33 9 C33 6.69 33 4.38 33 2 C21.78 2 10.56 2 -1 2 C-0.67 1.34 -0.34 0.68 0 0 Z " fill="#455A70" transform="translate(617,476)"/>
<path d="M0 0 C0 0.66 0 1.32 0 2 C0.99 2 1.98 2 3 2 C3 1.34 3 0.68 3 0 C3.86963379 0.23771118 3.86963379 0.23771118 4.75683594 0.48022461 C8.21220398 1.28088618 11.71910303 1.37223082 15.25 1.5625 C15.99507812 1.60568359 16.74015625 1.64886719 17.5078125 1.69335938 C19.338349 1.79896725 21.16915176 1.89994201 23 2 C23 2.33 23 2.66 23 3 C3.2 3 -16.6 3 -37 3 C-37 2.67 -37 2.34 -37 2 C-32.21287564 1.71404261 -27.4256845 1.42923999 -22.63842773 1.14550781 C-21.00982811 1.04882036 -19.38124719 0.95181724 -17.75268555 0.85449219 C-15.41199512 0.71466429 -13.07123978 0.57597129 -10.73046875 0.4375 C-10.00224411 0.39375244 -9.27401947 0.35000488 -8.52372742 0.30493164 C-5.6768611 0.13741315 -2.85257778 0 0 0 Z " fill="#576A79" transform="translate(597,280)"/>
<path d="M0 0 C4.28257592 -0.1007027 8.56448105 -0.17230689 12.84790039 -0.21972656 C14.2975671 -0.23954342 15.74715728 -0.26660535 17.1965332 -0.30175781 C27.83055336 -0.55275169 36.8422377 0.72395776 47 4 C47 4.33 47 4.66 47 5 C42.36887778 5.32310155 38.62019355 4.71285985 34.125 3.53125 C26.95581201 1.83133945 20.03259004 1.45305667 12.6875 1.3125 C11.45837891 1.27833984 10.22925781 1.24417969 8.96289062 1.20898438 C5.97535192 1.12761173 2.98806591 1.05811109 0 1 C0 0.67 0 0.34 0 0 Z " fill="#C78B21" transform="translate(696,192)"/>
<path d="M0 0 C0.33 0 0.66 0 1 0 C2.00894138 12.50366636 2.37685405 23.64884769 0 36 C-0.33 36 -0.66 36 -1 36 C-1.11317227 23.94976471 -1.03330247 12.01214121 0 0 Z " fill="#CC9429" transform="translate(831,696)"/>
<path d="M0 0 C-1 2 -1 2 -2.68310547 2.76196289 C-5.07710555 3.54096292 -7.47060477 4.31601889 -9.875 5.0625 C-10.73456299 5.33271973 -11.59412598 5.60293945 -12.47973633 5.88134766 C-18.63036348 7.74615623 -24.54116293 8.97097152 -31 9 C-28.20170275 7.1344685 -26.36449813 6.40362014 -23.18359375 5.52734375 C-21.79043945 5.13772461 -21.79043945 5.13772461 -20.36914062 4.74023438 C-18.91797852 4.34288086 -18.91797852 4.34288086 -17.4375 3.9375 C-15.51905924 3.40665077 -13.60106682 2.8741778 -11.68359375 2.33984375 C-10.83337646 2.10644287 -9.98315918 1.87304199 -9.10717773 1.63256836 C-3.37315691 -0.08876729 -3.37315691 -0.08876729 0 0 Z " fill="#CD9328" transform="translate(761,820)"/>
<path d="M0 0 C0.33 0 0.66 0 1 0 C0.51040099 5.58142877 -0.3589815 10.94947931 -1.5 16.4375 C-2.70910111 22.28836974 -3.59336833 28.04074281 -4 34 C-4.33 34 -4.66 34 -5 34 C-7.27514148 22.35017919 -4.02919756 10.93639337 0 0 Z " fill="#CE972D" transform="translate(198,276)"/>
<path d="M0 0 C0 0.66 0 1.32 0 2 C-4.84053444 2.80630327 -9.34564831 3.06819384 -14.24609375 2.87890625 C-14.90207047 2.85529526 -15.55804718 2.83168427 -16.23390198 2.80735779 C-18.30203745 2.73158874 -20.36971304 2.64719987 -22.4375 2.5625 C-23.85088994 2.50919205 -25.26430144 2.45645247 -26.67773438 2.40429688 C-30.11876315 2.27609386 -33.55943531 2.14016527 -37 2 C-37 1.67 -37 1.34 -37 1 C-32.52093162 0.83062157 -28.04173204 0.66498913 -23.5625 0.5 C-22.30244141 0.45230469 -21.04238281 0.40460937 -19.74414062 0.35546875 C-13.15744354 0.11470175 -6.59105693 -0.0573759 0 0 Z " fill="#CE982B" transform="translate(743,883)"/>
<path d="M0 0 C0.66 0.33 1.32 0.66 2 1 C-2.27721406 6.23958723 -6.77345264 10.71130039 -12 15 C-12.72058594 15.59683594 -13.44117188 16.19367187 -14.18359375 16.80859375 C-14.88613281 17.36675781 -15.58867188 17.92492187 -16.3125 18.5 C-16.94800781 19.0053125 -17.58351563 19.510625 -18.23828125 20.03125 C-18.81964844 20.3509375 -19.40101563 20.670625 -20 21 C-20.99 20.67 -21.98 20.34 -23 20 C-22.39414062 19.52691406 -21.78828125 19.05382812 -21.1640625 18.56640625 C-13.79076755 12.74717501 -6.58483154 6.71187009 0 0 Z " fill="#C88E25" transform="translate(836,832)"/>
<path d="M0 0 C0 0.66 0 1.32 0 2 C-1.3894043 3.09741211 -1.3894043 3.09741211 -3.32421875 4.27734375 C-4.02353516 4.70853516 -4.72285156 5.13972656 -5.44335938 5.58398438 C-6.18392578 6.03064453 -6.92449219 6.47730469 -7.6875 6.9375 C-8.40873047 7.38029297 -9.12996094 7.82308594 -9.87304688 8.27929688 C-11.27888323 9.14077285 -12.68879171 9.99564489 -14.10302734 10.84326172 C-15.6873684 11.80936312 -17.23390652 12.83710724 -18.76953125 13.87890625 C-21 15 -21 15 -23.3125 14.6875 C-23.869375 14.460625 -24.42625 14.23375 -25 14 C-24.09378906 13.49210938 -23.18757812 12.98421875 -22.25390625 12.4609375 C-15.88928139 8.87099516 -9.64689325 5.25419523 -3.671875 1.03125 C-2 0 -2 0 0 0 Z " fill="#C88F26" transform="translate(812,854)"/>
<path d="M0 0 C0.33 0 0.66 0 1 0 C0.47205656 11.15963203 -1.13513082 21.99844472 -3 33 C-3.33 33 -3.66 33 -4 33 C-3.11246617 14.77723091 -3.11246617 14.77723091 -2.5625 7.5 C-2.50191406 6.6853125 -2.44132813 5.870625 -2.37890625 5.03125 C-2 3 -2 3 0 0 Z " fill="#3B4F69" transform="translate(641,538)"/>
<path d="M0 0 C7.24997422 -0.28307925 13.90961228 0.49025965 21 2 C21 2.66 21 3.32 21 4 C6.21867882 3.03644647 6.21867882 3.03644647 0 2 C0 1.34 0 0.68 0 0 Z " fill="#CD9329" transform="translate(731,138)"/>
<path d="M0 0 C4.4975714 0.61237735 8.45173196 1.7515349 12.6875 3.375 C13.80511719 3.79523437 14.92273438 4.21546875 16.07421875 4.6484375 C18.70770143 5.86497289 20.17707605 6.79703183 22 9 C14.60470579 7.64419606 7.72671295 5.40703643 1 2 C0.67 1.34 0.34 0.68 0 0 Z " fill="#CE952A" transform="translate(256,817)"/>
<path d="M0 0 C0.33 0 0.66 0 1 0 C1.32291936 6.02782803 0.70256207 11.58624458 -0.375 17.5 C-0.50108643 18.21865234 -0.62717285 18.93730469 -0.75708008 19.67773438 C-1.10015817 21.46696258 -1.54235418 23.23659408 -2 25 C-2.66 25.33 -3.32 25.66 -4 26 C-3.03644647 13.33029613 -3.03644647 13.33029613 -2 8 C-1.34 8 -0.68 8 0 8 C0 5.36 0 2.72 0 0 Z " fill="#CD982C" transform="translate(887,722)"/>
<path d="M0 0 C1.40764055 4.22292165 -0.26132181 7.10226854 -1.8125 11.0625 C-2.08642578 11.79533203 -2.36035156 12.52816406 -2.64257812 13.28320312 C-4.72719029 18.72719029 -4.72719029 18.72719029 -7 21 C-6.61521615 14.33041329 -4.89445477 4.89445477 0 0 Z " fill="#CA9027" transform="translate(151,243)"/>
<path d="M0 0 C-0.33 0.99 -0.66 1.98 -1 3 C-3.94921875 4.38671875 -3.94921875 4.38671875 -7.6875 5.6875 C-8.90824219 6.12449219 -10.12898437 6.56148437 -11.38671875 7.01171875 C-14.79794949 7.94473646 -17.49003286 8.19949122 -21 8 C-18.27257997 5.27257997 -15.09339794 4.56925244 -11.5 3.4375 C-0.7766035 0 -0.7766035 0 0 0 Z " fill="#CB9328" transform="translate(779,872)"/>
<path d="M0 0 C0.66 0 1.32 0 2 0 C1.42697729 6.58976117 -0.20320736 14.20320736 -5 19 C-4.45182107 15.43683694 -3.80300762 11.90261506 -3.0625 8.375 C-2.90910156 7.64023437 -2.75570312 6.90546875 -2.59765625 6.1484375 C-1.97687606 3.91687473 -1.09946271 2.03331598 0 0 Z " fill="#CE9529" transform="translate(826,742)"/>
<path d="M0 0 C2.34770643 3.52155964 2.37669614 5.50771843 2.625 9.6875 C2.69976563 10.86699219 2.77453125 12.04648437 2.8515625 13.26171875 C2.90054688 14.16535156 2.94953125 15.06898438 3 16 C2.34 16.33 1.68 16.66 1 17 C-0.53266582 13.93466836 -0.10276471 10.73245728 -0.0625 7.375 C-0.05798828 6.66859375 -0.05347656 5.9621875 -0.04882812 5.234375 C-0.03703875 3.48954725 -0.01910324 1.744763 0 0 Z " fill="#CF952A" transform="translate(830,295)"/>
<path d="M0 0 C0.99 0.495 0.99 0.495 2 1 C3.65155878 6.89259861 4.27098599 12.90281525 4 19 C-0.00248815 14.99751185 0.0598747 7.76630358 -0.125 2.3125 C-0.08375 1.549375 -0.0425 0.78625 0 0 Z " fill="#C99026" transform="translate(193,726)"/>
<path d="M0 0 C-1.98 0.66 -3.96 1.32 -6 2 C-6 2.33 -6 2.66 -6 3 C-7.41199578 3.39222105 -8.82992764 3.76311059 -10.25 4.125 C-11.03890625 4.33382813 -11.8278125 4.54265625 -12.640625 4.7578125 C-15.4203071 5.04314411 -16.65887549 4.44977894 -19 3 C-16.586238 2.30048937 -14.16989766 1.61516081 -11.75 0.9375 C-11.06808594 0.73833984 -10.38617187 0.53917969 -9.68359375 0.33398438 C-3.41657839 -1.40009269 -3.41657839 -1.40009269 0 0 Z " fill="#374961" transform="translate(551,285)"/>
<path d="M0 0 C7.26 0 14.52 0 22 0 C22 0.33 22 0.66 22 1 C14.03505901 2.60037454 7.82947661 3.38865388 0 1 C0 0.67 0 0.34 0 0 Z " fill="#CFA33B" transform="translate(380,828)"/>
<path d="M0 0 C0.66 0.33 1.32 0.66 2 1 C1.34 1.66 0.68 2.32 0 3 C0.33 3.66 0.66 4.32 1 5 C-1.52956528 8.0916909 -4.22454612 8.90931332 -8 10 C-6.34908222 5.70761377 -3.26245434 3.1206085 0 0 Z " fill="#314763" transform="translate(496,309)"/>
<path d="M0 0 C1.0825154 3.2475462 0.98903488 5.18260904 0.6875 8.5625 C0.60886719 9.53316406 0.53023437 10.50382812 0.44921875 11.50390625 C0 14 0 14 -2 16 C-3.70701221 10.10304872 -1.95193635 5.58011183 0 0 Z " fill="#1D3051" transform="translate(562,392)"/>
<path d="M0 0 C-5.87843553 3.08994688 -11.49106779 3.11222297 -18 3 C-18 2.67 -18 2.34 -18 2 C-11.92972642 -0.1583195 -6.40629424 -0.20852314 0 0 Z " fill="#071B45" transform="translate(562,284)"/>
<path d="M0 0 C0.33 0 0.66 0 1 0 C1.08159574 4.16138263 0.98248524 7.9472484 0 12 C-0.99 12.33 -1.98 12.66 -3 13 C-2.45144652 8.428721 -1.58255197 4.32564205 0 0 Z " fill="#2F415E" transform="translate(469,349)"/>
<path d="M0 0 C0.66 0.33 1.32 0.66 2 1 C1.67 5.29 1.34 9.58 1 14 C0.67 14 0.34 14 0 14 C-1.33257403 4.58997722 -1.33257403 4.58997722 0 0 Z " fill="#2D4261" transform="translate(645,504)"/>
<path d="M0 0 C4.95 0.33 9.9 0.66 15 1 C15 1.33 15 1.66 15 2 C13.06325815 2.19517554 11.12555991 2.38087873 9.1875 2.5625 C8.10855469 2.66691406 7.02960938 2.77132812 5.91796875 2.87890625 C3 3 3 3 0 2 C0 1.34 0 0.68 0 0 Z " fill="#C58A20" transform="translate(362,191)"/>
<path d="M0 0 C4.8333472 -0.08333357 9.23692563 0.04738513 14 1 C14 1.33 14 1.66 14 2 C8.51053913 3.12029814 5.16569441 2.79217969 0 1 C0 0.67 0 0.34 0 0 Z " fill="#CF972C" transform="translate(280,826)"/>
<path d="M0 0 C0 0.66 0 1.32 0 2 C-1.98 2 -3.96 2 -6 2 C-6 2.66 -6 3.32 -6 4 C-8.31 4 -10.62 4 -13 4 C-10.71151961 1.71151961 -9.60592283 1.5103024 -6.5 0.875 C-5.7059375 0.70742188 -4.911875 0.53984375 -4.09375 0.3671875 C-2 0 -2 0 0 0 Z " fill="#11234A" transform="translate(599,365)"/>
<path d="M0 0 C8.57142857 -0.28571429 8.57142857 -0.28571429 12 2 C7.6835078 2.76173392 4.25566547 3.16063604 0 2 C0 1.34 0 0.68 0 0 Z " fill="#C68B21" transform="translate(328,191)"/>
<path d="M0 0 C0.66 0.33 1.32 0.66 2 1 C1.67 1.66 1.34 2.32 1 3 C-5.625 3.25 -5.625 3.25 -9 1 C-5.77390955 -0.07536348 -3.37822416 -0.14375422 0 0 Z " fill="#C68C24" transform="translate(630,191)"/>
<path d="M0 0 C1.32 1.32 2.64 2.64 4 4 C0.04 4 -3.92 4 -8 4 C-8 3.67 -8 3.34 -8 3 C-5.36 3 -2.72 3 0 3 C0 2.01 0 1.02 0 0 Z " fill="#BA903A" transform="translate(456,826)"/>
<path d="M0 0 C1 2 1 2 0.44140625 4.1640625 C0.15136719 4.97617187 -0.13867188 5.78828125 -0.4375 6.625 C-0.72496094 7.44226563 -1.01242187 8.25953125 -1.30859375 9.1015625 C-1.53675781 9.72804688 -1.76492188 10.35453125 -2 11 C-3.05602687 7.33963618 -2.91217967 4.7316441 -2 1 C-1.34 0.67 -0.68 0.34 0 0 Z " fill="#354D6C" transform="translate(565,388)"/>
<path d="M0 0 C2.1875 0.3125 2.1875 0.3125 4 1 C2.35 2.65 0.7 4.3 -1 6 C-1 5.34 -1 4.68 -1 4 C-1.66 3.67 -2.32 3.34 -3 3 C-1.75 1.4375 -1.75 1.4375 0 0 Z " fill="#0A2752" transform="translate(504,304)"/>
<path d="M0 0 C0.66 0.33 1.32 0.66 2 1 C1.34 1.66 0.68 2.32 0 3 C0 3.99 0 4.98 0 6 C-0.99 6 -1.98 6 -3 6 C-3 3 -3 3 -1.5 1.3125 C-0.7575 0.6628125 -0.7575 0.6628125 0 0 Z " fill="#2C4563" transform="translate(502,304)"/>
<path d="M0 0 C0.66 0.33 1.32 0.66 2 1 C0.25 3.0625 0.25 3.0625 -2 5 C-4.25 4.75 -4.25 4.75 -6 4 C-4.02 2.68 -2.04 1.36 0 0 Z " fill="#CE9A2D" transform="translate(226,158)"/>
<path d="M0 0 C3.63 0 7.26 0 11 0 C11 0.33 11 0.66 11 1 C7.37 1 3.74 1 0 1 C0 0.67 0 0.34 0 0 Z " fill="#3B5571" transform="translate(600,575)"/>
<path d="M0 0 C0.33 0 0.66 0 1 0 C1 1.65 1 3.3 1 5 C0.67 5 0.34 5 0 5 C0 3.35 0 1.7 0 0 Z " fill="#555E58" transform="translate(460,795)"/>
<path d="M0 0 C0.33 1.32 0.66 2.64 1 4 C0.34 3.34 -0.32 2.68 -1 2 C-0.67 1.34 -0.34 0.68 0 0 Z " fill="#D2A637" transform="translate(138,747)"/>
<path d="M0 0 C0.33 0 0.66 0 1 0 C1 1.65 1 3.3 1 5 C0.67 5 0.34 5 0 5 C0 3.35 0 1.7 0 0 Z " fill="#375271" transform="translate(460,468)"/>
<path d="M0 0 C4 1 4 1 4 1 Z " fill="#D3A83A" transform="translate(290,887)"/>
<path d="M0 0 C1 4 1 4 1 4 Z " fill="#4B585E" transform="translate(460,772)"/>
<path d="M0 0 C1 4 1 4 1 4 Z " fill="#3D5265" transform="translate(460,700)"/>
<path d="M0 0 C1 4 1 4 1 4 Z " fill="#385067" transform="translate(460,668)"/>
<path d="M0 0 C1 4 1 4 1 4 Z " fill="#395168" transform="translate(460,660)"/>
<path d="M0 0 C1 4 1 4 1 4 Z " fill="#385169" transform="translate(460,652)"/>
<path d="M0 0 C1 4 1 4 1 4 Z " fill="#375069" transform="translate(460,620)"/>
<path d="M0 0 C4 1 4 1 4 1 Z " fill="#385574" transform="translate(583,575)"/>
<path d="M0 0 C1 4 1 4 1 4 Z " fill="#3E5368" transform="translate(639,566)"/>
<path d="M0 0 C1 4 1 4 1 4 Z " fill="#36526F" transform="translate(460,444)"/>
<path d="M0 0 C3 1 3 1 3 1 Z " fill="#D3A639" transform="translate(283,886)"/>
<path d="M0 0 C3 1 3 1 3 1 Z " fill="#D2A538" transform="translate(280,885)"/>
<path d="M0 0 C3 1 3 1 3 1 Z " fill="#D9AE40" transform="translate(285,824)"/>
<path d="" fill="#515D5A" transform="translate(0,0)"/>
<path d="" fill="#4D595C" transform="translate(0,0)"/>
<path d="" fill="#47565E" transform="translate(0,0)"/>
<path d="" fill="#425561" transform="translate(0,0)"/>
<path d="M0 0 C3 1 3 1 3 1 Z " fill="#40586F" transform="translate(624,575)"/>
<path d="M0 0 C3 1 3 1 3 1 Z " fill="#395474" transform="translate(579,575)"/>
<path d="M0 0 C3 1 3 1 3 1 Z " fill="#395372" transform="translate(564,575)"/>
<path d="M0 0 C3 1 3 1 3 1 Z " fill="#3B5773" transform="translate(416,575)"/>
<path d="" fill="#345270" transform="translate(0,0)"/>
<path d="" fill="#36516E" transform="translate(0,0)"/>
<path d="" fill="#36516D" transform="translate(0,0)"/>
<path d="M0 0 C0.99 0.495 0.99 0.495 2 1 C1.01 1.495 1.01 1.495 0 2 C0 1.34 0 0.68 0 0 Z " fill="#59615E" transform="translate(654,287)"/>
<path d="M0 0 C3 1 3 1 3 1 Z " fill="#4B5D65" transform="translate(615,280)"/>
<path d="M0 0 C0.66 0.66 1.32 1.32 2 2 C1.34 2 0.68 2 0 2 C0 1.34 0 0.68 0 0 Z " fill="#D8AE3E" transform="translate(818,266)"/>
<path d="M0 0 C0.99 0.495 0.99 0.495 2 1 C1.01 1.495 1.01 1.495 0 2 C0 1.34 0 0.68 0 0 Z " fill="#D9B03E" transform="translate(816,264)"/>
<path d="M0 0 C2 1 2 1 2 1 Z " fill="#D1A639" transform="translate(256,879)"/>
<path d="M0 0 C2 1 2 1 2 1 Z " fill="#D1A537" transform="translate(250,877)"/>
<path d="" fill="#887C4E" transform="translate(0,0)"/>
<path d="M0 0 C2 1 2 1 2 1 Z " fill="#D9AE3E" transform="translate(731,825)"/>
<path d="M0 0 C2 1 2 1 2 1 Z " fill="#DAB03F" transform="translate(736,824)"/>
<path d="M0 0 C2 1 2 1 2 1 Z " fill="#D8B040" transform="translate(262,817)"/>
<path d="M0 0 C2 1 2 1 2 1 Z " fill="#D9AF40" transform="translate(260,816)"/>
<path d="" fill="#5B6153" transform="translate(0,0)"/>
<path d="" fill="#45555F" transform="translate(0,0)"/>
<path d="" fill="#435460" transform="translate(0,0)"/>
<path d="" fill="#43555F" transform="translate(0,0)"/>
<path d="" fill="#435560" transform="translate(0,0)"/>
<path d="" fill="#415462" transform="translate(0,0)"/>
<path d="" fill="#405463" transform="translate(0,0)"/>
<path d="" fill="#3E5364" transform="translate(0,0)"/>
<path d="" fill="#3A5065" transform="translate(0,0)"/>
<path d="" fill="#385067" transform="translate(0,0)"/>
<path d="" fill="#364E67" transform="translate(0,0)"/>
<path d="" fill="#39516A" transform="translate(0,0)"/>
<path d="" fill="#37506A" transform="translate(0,0)"/>
<path d="" fill="#364F69" transform="translate(0,0)"/>
<path d="" fill="#364F69" transform="translate(0,0)"/>
<path d="" fill="#354E6A" transform="translate(0,0)"/>
<path d="" fill="#334D6B" transform="translate(0,0)"/>
<path d="M0 0 C2 1 2 1 2 1 Z " fill="#41576E" transform="translate(628,575)"/>
<path d="M0 0 C2 1 2 1 2 1 Z " fill="#3F5870" transform="translate(620,575)"/>
<path d="M0 0 C2 1 2 1 2 1 Z " fill="#3D5671" transform="translate(612,575)"/>
<path d="M0 0 C2 1 2 1 2 1 Z " fill="#3B5674" transform="translate(596,575)"/>
<path d="M0 0 C2 1 2 1 2 1 Z " fill="#395473" transform="translate(588,575)"/>
<path d="M0 0 C2 1 2 1 2 1 Z " fill="#3A5776" transform="translate(576,575)"/>
<path d="M0 0 C2 1 2 1 2 1 Z " fill="#3A5777" transform="translate(568,575)"/>
<path d="M0 0 C2 1 2 1 2 1 Z " fill="#3A5876" transform="translate(439,575)"/>
<path d="M0 0 C2 1 2 1 2 1 Z " fill="#395674" transform="translate(436,575)"/>
<path d="M0 0 C2 1 2 1 2 1 Z " fill="#3B5772" transform="translate(420,575)"/>
<path d="M0 0 C2 1 2 1 2 1 Z " fill="#3C5873" transform="translate(408,575)"/>
<path d="M0 0 C2 1 2 1 2 1 Z " fill="#3C5770" transform="translate(404,575)"/>
<path d="M0 0 C2 1 2 1 2 1 Z " fill="#3D5871" transform="translate(399,575)"/>
<path d="M0 0 C2 1 2 1 2 1 Z " fill="#415262" transform="translate(638,572)"/>
<path d="" fill="#375371" transform="translate(0,0)"/>
<path d="" fill="#37536F" transform="translate(0,0)"/>
<path d="" fill="#344F6E" transform="translate(0,0)"/>
<path d="" fill="#35516E" transform="translate(0,0)"/>
<path d="" fill="#36516D" transform="translate(0,0)"/>
<path d="" fill="#36516D" transform="translate(0,0)"/>
<path d="M0 0 C2 1 2 1 2 1 Z " fill="#465461" transform="translate(511,296)"/>
<path d="M0 0 C2 1 2 1 2 1 Z " fill="#475963" transform="translate(526,288)"/>
<path d="M0 0 C2 1 2 1 2 1 Z " fill="#495961" transform="translate(536,285)"/>
<path d="" fill="#DBAF3F" transform="translate(0,0)"/>
<path d="M0 0 C2 1 2 1 2 1 Z " fill="#4D5D63" transform="translate(543,283)"/>
<path d="M0 0 C2 1 2 1 2 1 Z " fill="#4C5B63" transform="translate(549,282)"/>
<path d="M0 0 C2 1 2 1 2 1 Z " fill="#475963" transform="translate(605,280)"/>
<path d="M0 0 C2 1 2 1 2 1 Z " fill="#4A5B67" transform="translate(563,280)"/>
<path d="M0 0 C2 1 2 1 2 1 Z " fill="#4D5D65" transform="translate(560,280)"/>
<path d="M0 0 C2 1 2 1 2 1 Z " fill="#DAB03E" transform="translate(753,203)"/>
<path d="M0 0 C2 1 2 1 2 1 Z " fill="#DBB040" transform="translate(739,198)"/>
<path d="M0 0 C2 1 2 1 2 1 Z " fill="#DCB03F" transform="translate(728,196)"/>
<path d="M0 0 C2 1 2 1 2 1 Z " fill="#DDB13E" transform="translate(721,195)"/>
<path d="M0 0 C2 1 2 1 2 1 Z " fill="#D1A739" transform="translate(734,136)"/>
<path d="M0 0 C2 1 2 1 2 1 Z " fill="#D4AA3C" transform="translate(288,136)"/>
<path d="" fill="#97741F" transform="translate(0,0)"/>
<path d="" fill="#D3A93C" transform="translate(0,0)"/>
<path d="" fill="#D2A337" transform="translate(0,0)"/>
<path d="" fill="#D7A73B" transform="translate(0,0)"/>
<path d="" fill="#D1A439" transform="translate(0,0)"/>
<path d="" fill="#D2A53A" transform="translate(0,0)"/>
<path d="" fill="#D2A63B" transform="translate(0,0)"/>
<path d="" fill="#D1A337" transform="translate(0,0)"/>
<path d="" fill="#D0A437" transform="translate(0,0)"/>
<path d="" fill="#D0A537" transform="translate(0,0)"/>
<path d="" fill="#D9AF3E" transform="translate(0,0)"/>
<path d="" fill="#75704D" transform="translate(0,0)"/>
<path d="" fill="#DCB040" transform="translate(0,0)"/>
<path d="" fill="#656852" transform="translate(0,0)"/>
<path d="" fill="#636653" transform="translate(0,0)"/>
<path d="" fill="#DAAF3D" transform="translate(0,0)"/>
<path d="" fill="#D0A737" transform="translate(0,0)"/>
<path d="" fill="#D0A336" transform="translate(0,0)"/>
<path d="" fill="#D2A335" transform="translate(0,0)"/>
<path d="" fill="#D0A538" transform="translate(0,0)"/>
<path d="" fill="#DBB13F" transform="translate(0,0)"/>
<path d="" fill="#D0A635" transform="translate(0,0)"/>
<path d="" fill="#D9AF40" transform="translate(0,0)"/>
<path d="" fill="#535D57" transform="translate(0,0)"/>
<path d="" fill="#D9AB3D" transform="translate(0,0)"/>
<path d="" fill="#D3A438" transform="translate(0,0)"/>
<path d="" fill="#4F5C5C" transform="translate(0,0)"/>
<path d="" fill="#DCAF3E" transform="translate(0,0)"/>
<path d="" fill="#DDB140" transform="translate(0,0)"/>
<path d="" fill="#DAAD3F" transform="translate(0,0)"/>
<path d="" fill="#D3A538" transform="translate(0,0)"/>
<path d="" fill="#D2A337" transform="translate(0,0)"/>
<path d="" fill="#DBB13F" transform="translate(0,0)"/>
<path d="" fill="#45545D" transform="translate(0,0)"/>
<path d="" fill="#435460" transform="translate(0,0)"/>
<path d="" fill="#D0A438" transform="translate(0,0)"/>
<path d="" fill="#DAAC3E" transform="translate(0,0)"/>
<path d="" fill="#D3A73A" transform="translate(0,0)"/>
<path d="" fill="#D0A539" transform="translate(0,0)"/>
<path d="" fill="#DBB13E" transform="translate(0,0)"/>
<path d="" fill="#425463" transform="translate(0,0)"/>
<path d="" fill="#415262" transform="translate(0,0)"/>
<path d="" fill="#405664" transform="translate(0,0)"/>
<path d="" fill="#415464" transform="translate(0,0)"/>
<path d="" fill="#3E5564" transform="translate(0,0)"/>
<path d="" fill="#3F5265" transform="translate(0,0)"/>
<path d="" fill="#3D5268" transform="translate(0,0)"/>
<path d="" fill="#3A5168" transform="translate(0,0)"/>
<path d="" fill="#3A526A" transform="translate(0,0)"/>
<path d="" fill="#38546A" transform="translate(0,0)"/>
<path d="" fill="#374F69" transform="translate(0,0)"/>
<path d="" fill="#374F69" transform="translate(0,0)"/>
<path d="" fill="#37506A" transform="translate(0,0)"/>
<path d="" fill="#37506B" transform="translate(0,0)"/>
<path d="" fill="#D5A939" transform="translate(0,0)"/>
<path d="" fill="#344F6C" transform="translate(0,0)"/>
<path d="" fill="#354D6B" transform="translate(0,0)"/>
<path d="" fill="#374E6D" transform="translate(0,0)"/>
<path d="" fill="#324F6C" transform="translate(0,0)"/>
<path d="" fill="#465768" transform="translate(0,0)"/>
<path d="" fill="#3E5872" transform="translate(0,0)"/>
<path d="" fill="#3B5674" transform="translate(0,0)"/>
<path d="" fill="#3B5875" transform="translate(0,0)"/>
<path d="" fill="#3B5676" transform="translate(0,0)"/>
<path d="" fill="#3B5773" transform="translate(0,0)"/>
<path d="" fill="#395674" transform="translate(0,0)"/>
<path d="" fill="#395674" transform="translate(0,0)"/>
<path d="" fill="#3A5675" transform="translate(0,0)"/>
<path d="" fill="#3A5775" transform="translate(0,0)"/>
<path d="" fill="#3A5674" transform="translate(0,0)"/>
<path d="" fill="#3B5875" transform="translate(0,0)"/>
<path d="" fill="#3B5871" transform="translate(0,0)"/>
<path d="" fill="#3E5972" transform="translate(0,0)"/>
<path d="" fill="#405972" transform="translate(0,0)"/>
<path d="" fill="#455B6A" transform="translate(0,0)"/>
<path d="" fill="#455A66" transform="translate(0,0)"/>
<path d="" fill="#3C516A" transform="translate(0,0)"/>
<path d="" fill="#3A5169" transform="translate(0,0)"/>
<path d="" fill="#425766" transform="translate(0,0)"/>
<path d="" fill="#4D5764" transform="translate(0,0)"/>
<path d="" fill="#45576B" transform="translate(0,0)"/>
<path d="" fill="#435768" transform="translate(0,0)"/>
<path d="" fill="#3A5470" transform="translate(0,0)"/>
<path d="" fill="#385575" transform="translate(0,0)"/>
<path d="" fill="#395671" transform="translate(0,0)"/>
<path d="" fill="#3C556E" transform="translate(0,0)"/>
<path d="" fill="#36506F" transform="translate(0,0)"/>
<path d="" fill="#35516E" transform="translate(0,0)"/>
<path d="" fill="#36536C" transform="translate(0,0)"/>
<path d="" fill="#365270" transform="translate(0,0)"/>
<path d="" fill="#37526F" transform="translate(0,0)"/>
<path d="" fill="#38536D" transform="translate(0,0)"/>
<path d="" fill="#38516E" transform="translate(0,0)"/>
<path d="" fill="#39526B" transform="translate(0,0)"/>
<path d="" fill="#364E70" transform="translate(0,0)"/>
<path d="" fill="#334D6E" transform="translate(0,0)"/>
<path d="" fill="#455769" transform="translate(0,0)"/>
<path d="" fill="#3A506A" transform="translate(0,0)"/>
<path d="" fill="#425669" transform="translate(0,0)"/>
<path d="" fill="#3E5164" transform="translate(0,0)"/>
<path d="" fill="#3F5467" transform="translate(0,0)"/>
<path d="" fill="#405265" transform="translate(0,0)"/>
<path d="" fill="#3A4F64" transform="translate(0,0)"/>
<path d="" fill="#44566A" transform="translate(0,0)"/>
<path d="" fill="#3F5363" transform="translate(0,0)"/>
<path d="" fill="#425462" transform="translate(0,0)"/>
<path d="" fill="#495863" transform="translate(0,0)"/>
<path d="" fill="#DBAD3F" transform="translate(0,0)"/>
<path d="" fill="#485A61" transform="translate(0,0)"/>
<path d="" fill="#445662" transform="translate(0,0)"/>
<path d="" fill="#4A5B61" transform="translate(0,0)"/>
<path d="" fill="#D7AC3E" transform="translate(0,0)"/>
<path d="" fill="#4B595F" transform="translate(0,0)"/>
<path d="" fill="#D2A639" transform="translate(0,0)"/>
<path d="" fill="#5A615C" transform="translate(0,0)"/>
<path d="" fill="#60655B" transform="translate(0,0)"/>
<path d="" fill="#4D5960" transform="translate(0,0)"/>
<path d="" fill="#465A63" transform="translate(0,0)"/>
<path d="" fill="#495B69" transform="translate(0,0)"/>
<path d="" fill="#4A5965" transform="translate(0,0)"/>
<path d="" fill="#525D64" transform="translate(0,0)"/>
<path d="" fill="#DBAF40" transform="translate(0,0)"/>
<path d="" fill="#D1A438" transform="translate(0,0)"/>
<path d="" fill="#D9B03F" transform="translate(0,0)"/>
<path d="" fill="#DBAD3D" transform="translate(0,0)"/>
<path d="" fill="#D7AE41" transform="translate(0,0)"/>
<path d="" fill="#D9B03F" transform="translate(0,0)"/>
<path d="" fill="#D9B03F" transform="translate(0,0)"/>
<path d="" fill="#DAAE3D" transform="translate(0,0)"/>
<path d="" fill="#D2A436" transform="translate(0,0)"/>
<path d="" fill="#DAB141" transform="translate(0,0)"/>
<path d="" fill="#D4A73C" transform="translate(0,0)"/>
<path d="" fill="#DAB042" transform="translate(0,0)"/>
<path d="" fill="#D1A539" transform="translate(0,0)"/>
<path d="" fill="#DBAD3F" transform="translate(0,0)"/>
<path d="" fill="#D9AB39" transform="translate(0,0)"/>
<path d="" fill="#DEAF3D" transform="translate(0,0)"/>
<path d="" fill="#DCB240" transform="translate(0,0)"/>
<path d="" fill="#D1A33A" transform="translate(0,0)"/>
<path d="" fill="#DBAE3F" transform="translate(0,0)"/>
<path d="" fill="#DCB03F" transform="translate(0,0)"/>
<path d="" fill="#D8AF40" transform="translate(0,0)"/>
<path d="" fill="#DAAF40" transform="translate(0,0)"/>
<path d="" fill="#DCAE3E" transform="translate(0,0)"/>
<path d="" fill="#DEB03F" transform="translate(0,0)"/>
<path d="" fill="#D1A538" transform="translate(0,0)"/>
<path d="" fill="#D0A738" transform="translate(0,0)"/>
<path d="" fill="#CEA237" transform="translate(0,0)"/>
<path d="" fill="#CFA339" transform="translate(0,0)"/>
<path d="" fill="#D3A437" transform="translate(0,0)"/>
<path d="" fill="#D2A538" transform="translate(0,0)"/>
<path d="" fill="#D0A63A" transform="translate(0,0)"/>
<path d="" fill="#D0A33A" transform="translate(0,0)"/>
<path d="" fill="#D2A73A" transform="translate(0,0)"/>
<path d="" fill="#D0A437" transform="translate(0,0)"/>
<path d="" fill="#D2A738" transform="translate(0,0)"/>
<path d="" fill="#D2A838" transform="translate(0,0)"/>
<path d="" fill="#D2A637" transform="translate(0,0)"/>
<path d="" fill="#2D2000" transform="translate(0,0)"/>
</svg>
