<?xml version="1.0" encoding="UTF-8"?>
<svg version="1.1" xmlns="http://www.w3.org/2000/svg" width="1024" height="1024">
<path d="M0 0 C3.68979298 0.00384917 7.3795833 0.00586374 11.0693779 0.00746536 C46.32932818 0.02543439 81.58708979 0.18950717 116.84537125 0.53493881 C120.0116983 0.56585937 123.17803404 0.59573572 126.3443718 0.62553787 C185.7148251 1.19502397 185.7148251 1.19502397 206.55402756 3.37877274 C207.7887883 3.50663162 209.02354904 3.63449051 210.29572678 3.76622391 C257.16644 8.93777184 300.46607735 25.11256842 335.87214279 56.7000618 C337.62296666 58.2447356 339.40334568 59.75089732 341.18684006 61.25767899 C345.05191424 64.56411456 348.22643679 68.23831176 351.49152756 72.12877274 C352.25465256 73.00404617 353.01777756 73.87931961 353.80402756 74.78111649 C359.968924 81.95744125 365.26435836 89.49259324 370.3914299 97.4368782 C372.35483191 100.45649114 374.3993468 103.42178897 376.43293381 106.39439774 C377.49152756 108.12877274 377.49152756 108.12877274 378.49152756 111.12877274 C379.33055554 112.82565975 380.17065092 114.52203234 381.0176506 116.21495438 C392.27761081 139.04521999 398.07238394 163.54545095 401.24152756 188.69127274 C401.41518845 190.05143509 401.41518845 190.05143509 401.59235764 191.43907547 C403.78072477 210.65177401 403.66528383 230.14994056 403.80793381 249.46080399 C403.82880137 251.92099055 403.84989099 254.38117524 403.87118149 256.84135818 C403.9270877 263.48729724 403.97676 270.13327033 404.02415848 276.77927399 C404.04901393 280.26383559 404.07496522 283.74838801 404.10125279 287.23293906 C404.4459838 332.99907522 404.59831275 378.76497003 404.61364096 424.53236729 C404.61526714 429.26942001 404.61819592 434.00646921 404.62235177 438.74352038 C404.67336528 497.50912739 404.67336528 497.50912739 404.05793381 522.55064774 C404.03931919 523.34078829 404.02070457 524.13092884 404.00152588 524.94501305 C403.68466563 537.81424437 402.72470716 550.44489645 400.49152756 563.12877274 C400.20366379 564.80592361 400.20366379 564.80592361 399.90998459 566.51695633 C394.65075528 596.34899183 385.34615198 627.20756394 367.49152756 652.12877274 C366.86891037 653.02080399 366.24629318 653.91283524 365.60480881 654.83189774 C360.85879873 661.50801407 355.74405248 667.84710245 350.49152756 674.12877274 C349.88695724 674.86998367 349.28238693 675.61119461 348.65949631 676.37486649 C347.31646497 677.99892141 345.91086479 679.57096357 344.49152756 681.12877274 C343.83152756 681.12877274 343.17152756 681.12877274 342.49152756 681.12877274 C342.16152756 682.11877274 341.83152756 683.10877274 341.49152756 684.12877274 C340.06574631 685.60142899 340.06574631 685.60142899 338.17902756 687.19127274 C337.45199631 687.80486649 336.72496506 688.41846024 335.97590256 689.05064774 C334.74613693 690.07931961 334.74613693 690.07931961 333.49152756 691.12877274 C332.16894943 692.28119461 332.16894943 692.28119461 330.81965256 693.45689774 C296.87065184 722.63468754 254.23517158 736.23942419 210.49152756 742.12877274 C209.26538742 742.2943367 209.26538742 742.2943367 208.01447678 742.46324539 C190.06869213 744.81042835 171.99491893 745.3007374 153.91950607 745.68297195 C152.95904912 745.70393425 151.99859217 745.72489654 151.00903046 745.74649405 C128.64349444 746.22580173 106.28097044 746.27679593 83.91115642 746.26309824 C78.28678775 746.26049372 72.66242037 746.26293362 67.03805161 746.26448441 C57.61865056 746.26628191 48.19925746 746.26396312 38.77985764 746.25914383 C28.00112205 746.2536916 17.22240536 746.25548074 6.44367021 746.26097023 C-2.94540949 746.26555425 -12.33448362 746.26612683 -21.72356409 746.26353157 C-27.27293897 746.26199932 -32.82230505 746.26168863 -38.37167931 746.26506805 C-58.75160877 746.27571465 -79.12463779 746.24727076 -99.49846268 745.7025032 C-100.21263607 745.68442557 -100.92680947 745.66634793 -101.66262448 745.64772248 C-155.18276459 744.24492786 -208.65586139 733.2000853 -252.50847244 701.12877274 C-253.28319901 700.56803055 -254.05792557 700.00728836 -254.85612869 699.42955399 C-261.33986056 694.56969688 -267.21633708 689.02690978 -273.09440994 683.46373367 C-274.22378528 682.39753472 -275.36430531 681.34314491 -276.50847244 680.29283524 C-289.67205174 667.82540677 -299.49261749 651.47478783 -308.57097244 635.94127274 C-309.28736893 634.71984573 -309.28736893 634.71984573 -310.01823807 633.47374344 C-310.45974197 632.70634842 -310.90124588 631.9389534 -311.35612869 631.14830399 C-311.74808426 630.46872635 -312.14003983 629.78914871 -312.54387283 629.08897781 C-313.52338692 627.09846437 -314.00509413 625.28218664 -314.50847244 623.12877274 C-315.01666818 621.82292185 -315.55237833 620.52756111 -316.11003494 619.24205399 C-323.80274923 601.08378222 -328.97835106 582.62664278 -332.32097244 563.19127274 C-332.51586258 562.07575027 -332.71075272 560.96022781 -332.91154861 559.81090164 C-336.20336288 539.25338371 -336.8481963 518.32108518 -337.12565994 497.53892899 C-337.15331751 495.72345912 -337.15331751 495.72345912 -337.18153381 493.8713131 C-337.84317107 449.5546365 -337.65826991 405.22452849 -337.63704276 360.9043318 C-337.63269125 350.76320231 -337.63580879 340.62208521 -337.64066994 330.48095649 C-337.64523487 320.5490445 -337.64583666 310.61713778 -337.64323127 300.68522507 C-337.64169329 294.81610291 -337.64140598 288.94698909 -337.64476776 283.07786751 C-337.6746922 222.63902986 -337.6746922 222.63902986 -335.25847244 198.50377274 C-335.13061356 197.21873856 -335.00275467 195.93370438 -334.87102127 194.60972977 C-333.55473084 182.26483315 -331.4015292 170.19766186 -328.50847244 158.12877274 C-328.18604568 156.77332352 -328.18604568 156.77332352 -327.85710526 155.39049149 C-320.01595536 123.36953258 -304.07804764 95.72227048 -282.50847244 71.12877274 C-281.71183182 70.20838211 -280.91519119 69.28799149 -280.09440994 68.33971024 C-275.54214171 63.16170067 -270.8563649 58.47672537 -265.50847244 54.12877274 C-265.01750076 53.72545731 -264.52652908 53.32214188 -264.02067947 52.90660477 C-255.56610419 45.98876544 -246.8580912 39.77487278 -237.50847244 34.12877274 C-236.90873611 33.76042313 -236.30899979 33.39207352 -235.69108963 33.0125618 C-189.12231373 4.61816803 -133.73428432 1.50298009 -80.64128494 0.57408524 C-79.48379871 0.5531493 -78.32631248 0.53221336 -77.13375092 0.51064301 C-51.42251775 0.05307745 -25.71471284 -0.0293788 0 0 Z M-101.32097244 60.55846024 C-102.14640863 60.57680798 -102.97184483 60.59515572 -103.82229424 60.61405945 C-150.77523355 61.71224526 -197.42941505 70.94441751 -232.50847244 104.12877274 C-233.40565994 104.94990555 -234.30284744 105.77103836 -235.22722244 106.61705399 C-268.88512213 138.52587742 -276.711884 187.31174777 -278.06267166 231.47618484 C-278.0941151 232.49211269 -278.0941151 232.49211269 -278.12619376 233.52856433 C-278.65339705 250.96873948 -278.65568214 268.40894909 -278.64279795 285.85556912 C-278.64072242 289.57945306 -278.64200217 293.30333324 -278.64323127 297.02721733 C-278.64616173 305.90750877 -278.64423403 314.78778932 -278.63884354 323.66807938 C-278.63409025 331.5850779 -278.63395451 339.5020575 -278.63884354 347.41905594 C-278.66404653 389.58366937 -278.57700853 431.74625046 -278.15284872 473.90900302 C-278.1261566 476.6672937 -278.10249882 479.42559401 -278.07976532 482.18391991 C-277.57934658 541.37119386 -274.31747635 600.17494964 -229.95549393 644.09703445 C-223.91707575 649.92005521 -217.79401978 654.91278066 -210.50847244 659.12877274 C-209.81560135 659.53144363 -209.12273026 659.93411453 -208.40886307 660.34898758 C-177.68608592 677.90770529 -144.43285347 683.54620375 -109.35843277 684.69781876 C-107.54911582 684.75927754 -107.54911582 684.75927754 -105.70324701 684.82197791 C-92.83425083 685.22816954 -79.97090467 685.27706349 -67.09660721 685.27403641 C-64.4893171 685.27703963 -61.88202743 685.28044477 -59.27473831 685.28421402 C-53.00565727 685.2924 -46.73658563 685.2952632 -40.46749968 685.2958264 C-35.35972078 685.29630696 -30.25194489 685.29838807 -25.14416695 685.30152702 C-10.57070265 685.31029715 4.00275438 685.31495162 18.57622134 685.31419655 C19.35627288 685.31415659 20.13632442 685.31411664 20.94001389 685.31407547 C22.11156538 685.31401415 22.11156538 685.31401415 23.30678458 685.31395159 C35.96305099 685.31354515 48.61928766 685.32312381 61.27554547 685.33721384 C74.36098763 685.35166363 87.44641534 685.35847947 100.53186566 685.35762006 C107.84241663 685.35729126 115.15293633 685.35989741 122.46348 685.37079811 C129.3428847 685.38099301 136.22222298 685.38048112 143.10163116 685.37328148 C145.60022644 685.37224999 148.09882605 685.37451096 150.59741402 685.38064194 C197.2293286 685.48749884 246.13270075 682.64526238 285.55402756 655.06627274 C286.58934616 654.34286697 286.58934616 654.34286697 287.64558029 653.60484695 C292.386852 650.18088367 296.45032925 646.34480822 300.49152756 642.12877274 C301.27527756 641.36564774 302.05902756 640.60252274 302.86652756 639.81627274 C303.73277756 638.92939774 304.59902756 638.04252274 305.49152756 637.12877274 C306.13734787 636.47908524 306.78316818 635.82939774 307.44855881 635.16002274 C334.60107516 606.62848191 344.42062401 563.89084136 346.30802822 525.78792953 C346.44160919 523.12419395 346.58540128 520.46198642 346.73683262 517.79928207 C347.50703838 503.712927 347.64022399 489.66130427 347.63679123 475.55650711 C347.6397916 473.06175055 347.64319611 470.56699444 347.64696884 468.07223892 C347.65482207 462.04883567 347.65801981 456.0254478 347.65858122 450.00204086 C347.65906086 445.08867125 347.66113756 440.1753048 347.66428185 435.26193619 C347.67306777 421.24101536 347.67770488 407.22010211 347.67695137 393.19917852 C347.67691141 392.4471409 347.67687146 391.69510328 347.67683029 390.92027664 C347.67678941 390.16728843 347.67674853 389.41430023 347.67670641 388.63849419 C347.67630133 376.47864269 347.68584148 364.31882235 347.69996866 352.15897983 C347.71445865 339.58448617 347.72123189 327.01000758 347.72037488 314.43550539 C347.72004704 307.41187619 347.72266529 300.38827992 347.73355293 293.36465836 C349.56437823 212.92550972 349.56437823 212.92550972 326.55402756 136.94127274 C326.0766716 136.01081131 325.59931564 135.08034988 325.10749435 134.12169266 C319.46204211 123.56073008 311.59215977 114.86588319 303.49152756 106.12877274 C302.62527756 105.14650711 302.62527756 105.14650711 301.74152756 104.14439774 C271.37423819 71.33687976 222.14048885 63.03028726 179.74877739 61.24191666 C167.63676147 60.82119333 155.51105072 60.74315986 143.39313483 60.60380697 C140.78692657 60.57366152 138.18073573 60.54225758 135.57454491 60.51064301 C95.90176607 60.03445976 56.23012292 59.97446335 16.55495369 60.00020337 C9.97903763 60.00402257 3.40313647 60.00256729 -3.17277908 59.99840164 C-52.25018692 59.88913244 -52.25018692 59.88913244 -101.32097244 60.55846024 Z " fill="#D9A733" transform="translate(477.50847244262695,138.8712272644043)"/>
<path d="M0 0 C0.80904785 0.28391602 1.6180957 0.56783203 2.45166016 0.86035156 C3.18989014 1.12444824 3.92812012 1.38854492 4.6887207 1.66064453 C6.63912379 2.35039811 6.63912379 2.35039811 8.56494141 1.11816406 C9.22494141 1.77816406 9.88494141 2.43816406 10.56494141 3.11816406 C13.1458229 5.1749146 15.70561971 6.80850185 18.65478516 8.28222656 C19.43257324 8.67732422 20.21036133 9.07242187 21.01171875 9.47949219 C21.83365723 9.89650391 22.6555957 10.31351562 23.50244141 10.74316406 C31.68925466 14.98162793 39.16799338 19.59181779 46.56494141 25.11816406 C47.09780762 25.5097168 47.63067383 25.90126953 48.1796875 26.3046875 C56.46792781 32.40353495 64.13616765 39.00379707 71.56494141 46.11816406 C72.06380859 46.5897998 72.56267578 47.06143555 73.07666016 47.54736328 C81.07684837 55.13880152 87.98320104 63.27747148 94.56494141 72.11816406 C95.17724609 72.92382812 95.78955078 73.72949219 96.42041016 74.55957031 C120.71526605 107.74138061 133.77962056 148.30235786 133.81494141 189.30566406 C133.81561615 190.01203003 133.81629089 190.718396 133.81698608 191.44616699 C133.76994534 222.609118 126.50781943 252.279129 112.56494141 280.11816406 C112.00782471 281.24424072 112.00782471 281.24424072 111.43945312 282.39306641 C105.985461 293.35248233 100.00941601 303.40249382 92.56494141 313.11816406 C91.94876953 313.94574219 91.33259766 314.77332031 90.69775391 315.62597656 C84.02393676 324.45263795 76.39540538 332.38466007 68.62744141 340.24316406 C67.63260742 341.25757568 67.63260742 341.25757568 66.61767578 342.29248047 C65.993125 342.91815918 65.36857422 343.54383789 64.72509766 344.18847656 C64.16443604 344.75324707 63.60377441 345.31801758 63.02612305 345.89990234 C61.56494141 347.11816406 61.56494141 347.11816406 59.56494141 347.11816406 C59.56494141 347.77816406 59.56494141 348.43816406 59.56494141 349.11816406 C57.25105588 351.06717934 54.93292988 352.88647419 52.50244141 354.68066406 C51.77871338 355.21788086 51.05498535 355.75509766 50.30932617 356.30859375 C43.33295464 361.41129386 36.09726707 365.89179184 28.56494141 370.11816406 C27.95827637 370.46331055 27.35161133 370.80845703 26.7265625 371.1640625 C-1.13831856 386.93663668 -32.40264057 395.28095314 -64.43505859 396.11816406 C-65.65193359 396.158125 -66.86880859 396.19808594 -68.12255859 396.23925781 C-114.97799528 397.04222397 -160.64355588 381.59080569 -196.43505859 351.11816406 C-197.67169846 350.08911035 -198.90870795 349.06050072 -200.14599609 348.03222656 C-201.45149089 346.93683382 -202.75618052 345.84048074 -204.06005859 344.74316406 C-204.68944336 344.21851563 -205.31882812 343.69386719 -205.96728516 343.15332031 C-207.49511343 341.85224587 -208.97040031 340.48996217 -210.43505859 339.11816406 C-210.43505859 338.45816406 -210.43505859 337.79816406 -210.43505859 337.11816406 C-211.42505859 336.78816406 -212.41505859 336.45816406 -213.43505859 336.11816406 C-214.90771484 334.69238281 -214.90771484 334.69238281 -216.49755859 332.80566406 C-217.11244141 332.07734375 -217.72732422 331.34902344 -218.36083984 330.59863281 C-219.38757813 329.37080078 -219.38757813 329.37080078 -220.43505859 328.11816406 C-221.19173828 327.24804688 -221.94841797 326.37792969 -222.72802734 325.48144531 C-247.02157987 297.17115278 -263.60269747 262.77675598 -270.43505859 226.11816406 C-270.75603516 224.44173828 -270.75603516 224.44173828 -271.08349609 222.73144531 C-274.84076154 200.16062607 -274.42494485 175.98777521 -269.83081055 153.58422852 C-269.42463105 151.05318651 -269.36727683 148.67699722 -269.43505859 146.11816406 C-268.77505859 146.11816406 -268.11505859 146.11816406 -267.43505859 146.11816406 C-267.25330078 144.38759766 -267.25330078 144.38759766 -267.06787109 142.62207031 C-265.52683167 130.40382917 -260.87086566 118.92948779 -255.37646484 108.00390625 C-254.4140265 106.07603442 -253.484736 104.13471147 -252.56005859 102.18847656 C-245.75199679 88.0041483 -237.76803934 75.02282797 -227.43505859 63.11816406 C-226.46211304 61.96325284 -225.49085112 60.80692182 -224.52099609 59.64941406 C-214.83782956 48.13917675 -204.54692799 38.32075446 -192.73193359 28.98144531 C-190.4175241 27.16973879 -190.4175241 27.16973879 -188.43505859 25.11816406 C-164.71458421 8.18944944 -136.99276023 -3.44709603 -108.43505859 -8.88183594 C-107.65582031 -9.04264648 -106.87658203 -9.20345703 -106.07373047 -9.36914062 C-70.87477501 -16.48819542 -33.49059763 -12.12833754 0 0 Z M-173.98583984 89.64160156 C-199.87765662 115.82248168 -213.39558937 148.26132497 -214.43505859 185.11816406 C-214.46229004 185.81135742 -214.48952148 186.50455078 -214.51757812 187.21875 C-215.43889628 211.52068938 -210.5378199 235.44771429 -199.43505859 257.11816406 C-199.12826172 257.74980469 -198.82146484 258.38144531 -198.50537109 259.03222656 C-192.54230052 270.65368528 -185.30598647 280.57006612 -176.43505859 290.11816406 C-175.70996094 290.90900391 -175.70996094 290.90900391 -174.97021484 291.71582031 C-153.13803401 315.3229752 -123.14751886 329.69475222 -91.43505859 334.11816406 C-90.77916748 334.21025146 -90.12327637 334.30233887 -89.44750977 334.3972168 C-50.78372134 339.30347566 -11.6032507 329.66767294 19.29931641 305.77734375 C23.17800103 302.69263298 26.90301359 299.45614298 30.56494141 296.11816406 C31.51111328 295.25578125 32.45728516 294.39339844 33.43212891 293.50488281 C59.39306783 268.6838718 74.69530218 232.85505271 75.84619141 197.11035156 C76.10077305 183.55211109 75.86683481 170.31387105 72.56494141 157.11816406 C72.36626465 156.32152344 72.16758789 155.52488281 71.96289062 154.70410156 C66.09908408 132.00436208 55.61583668 113.0156417 40.56494141 95.11816406 C39.79923828 94.16876953 39.79923828 94.16876953 39.01806641 93.20019531 C35.28236778 88.65107844 31.08570375 84.87462486 26.56494141 81.11816406 C25.84822266 80.50199219 25.13150391 79.88582031 24.39306641 79.25097656 C-33.77208926 30.64989012 -121.00742116 37.23109855 -173.98583984 89.64160156 Z " fill="#D9A733" transform="translate(581.43505859375,318.8818359375)"/>
<path d="M0 0 C2.6142168 0.52501584 5.10151231 0.77045624 7.7578125 0.94140625 C11.79331052 1.3620677 13.17036705 2.40356814 15.8203125 5.56640625 C17.07652603 6.50300793 18.34935694 7.41749749 19.6328125 8.31640625 C28.58472292 14.97210173 35.24647704 24.25856588 37.53515625 35.32421875 C39.1106293 47.71218494 37.29102313 58.90852081 30.2578125 69.37890625 C22.15898765 79.66741337 11.34166203 85.78668945 -1.6171875 87.44140625 C-14.9007221 88.15739819 -26.6000985 83.93997552 -36.5546875 75.00390625 C-44.89338406 65.9055403 -49.80731609 53.02814978 -49.43359375 40.6953125 C-47.91728324 27.98163205 -42.45341785 18.24417587 -33.1796875 9.56640625 C-27.94214395 5.65056256 -22.45582963 2.98777513 -16.1875 1.1640625 C-13.99245524 0.56112868 -13.99245524 0.56112868 -11.3046875 -0.74609375 C-7.21389381 -1.64606836 -4.05645434 -0.87871422 0 0 Z " fill="#1E4871" transform="translate(716.1796875,265.43359375)"/>
<path d="M0 0 C0.33 0 0.66 0 1 0 C1.17867988 18.52072945 1.34415843 37.04156554 1.5 55.5625 C1.50594854 56.26775613 1.51189708 56.97301227 1.51802588 57.6996398 C1.94122465 107.9876208 2.0899862 158.27281738 2.0625 208.5625 C2.06207577 209.36201537 2.06165154 210.16153073 2.06121445 210.98527384 C2.0502376 231.32352829 2.03033244 251.66176482 2 272 C1.67 272 1.34 272 1 272 C0.98969254 271.41436279 0.97938507 270.82872559 0.96876526 270.2253418 C0.85850238 263.99309859 0.74415373 257.76093885 0.62768555 251.52880859 C0.58502259 249.21925647 0.54331812 246.90968639 0.50268555 244.60009766 C0.44327224 241.23334375 0.38012272 237.86667494 0.31640625 234.5 C0.29969376 233.50830811 0.28298126 232.51661621 0.26576233 231.49487305 C0.16291696 226.23924377 0.00681979 220.99337248 -0.2394104 215.74263 C-0.94356098 200.66581468 -1.13739403 185.63493569 -1.09375 170.54296875 C-1.08993615 167.99456307 -1.08632071 165.44615708 -1.08288574 162.89775085 C-1.02880158 132.69385397 -0.7926144 102.49057311 -0.55461884 72.28767478 C-0.49232452 64.37124878 -0.43272159 56.45480304 -0.37324238 48.53835547 C-0.25162486 32.35888158 -0.12694999 16.17943296 0 0 Z " fill="#E5B64B" transform="translate(880,363)"/>
<path d="M0 0 C0.33 0 0.66 0 1 0 C1.19671463 4.91786564 0.83235425 9.44816166 0.0625 14.3125 C-1.29658349 23.17063989 -1.63758348 32.0540344 -2 41 C-2.33 41 -2.66 41 -3 41 C-3.04975174 36.71331312 -3.0858847 32.42678303 -3.10986328 28.13989258 C-3.1198685 26.68413359 -3.13347696 25.22839443 -3.15087891 23.77270508 C-3.17537044 21.6700346 -3.18653794 19.56763176 -3.1953125 17.46484375 C-3.20578613 16.202771 -3.21625977 14.94069824 -3.22705078 13.64038086 C-2.92450071 8.78949466 -1.52726012 4.58178035 0 0 Z " fill="#D8A025" transform="translate(313,471)"/>
<path d="M0 0 C13.2 0.66 26.4 1.32 40 2 C40 2.33 40 2.66 40 3 C36.03506717 3.16944814 32.06987381 3.32978229 28.10424805 3.48217773 C26.10251279 3.5609259 24.10105398 3.6466034 22.09960938 3.73242188 C8.43470303 4.24872816 8.43470303 4.24872816 2 3 C1.34 2.01 0.68 1.02 0 0 Z " fill="#E6B743" transform="translate(484,652)"/>
<path d="M0 0 C0.33 0 0.66 0 1 0 C1.169023 4.26811816 1.32941546 8.53645194 1.48217773 12.80517578 C1.53520491 14.25415544 1.59049773 15.70305419 1.64819336 17.15185547 C2.23546659 31.97156783 2.23546659 31.97156783 1 39 C0.34 39 -0.32 39 -1 39 C-1.33 39.99 -1.66 40.98 -2 42 C-1.93433838 41.23921143 -1.86867676 40.47842285 -1.80102539 39.69458008 C-1.08938915 31.02882414 -0.70562006 22.37722733 -0.4375 13.6875 C-0.39414291 12.34960084 -0.35052433 11.01171012 -0.30664062 9.67382812 C-0.2018723 6.44929176 -0.09969983 3.22469637 0 0 Z " fill="#E8BC4E" transform="translate(657,494)"/>
<path d="M0 0 C10.40798659 0.56825214 20.67275755 1.60222605 31 3 C31 3.33 31 3.66 31 4 C24.12631267 4.74464946 17.83079148 5.18225237 11 4 C11 3.67 11 3.34 11 3 C7.37 2.34 3.74 1.68 0 1 C0 0.67 0 0.34 0 0 Z " fill="#DFAE3B" transform="translate(328,820)"/>
<path d="M0 0 C0 0.66 0 1.32 0 2 C0.66 2.33 1.32 2.66 2 3 C1.19820312 2.87882812 0.39640625 2.75765625 -0.4296875 2.6328125 C-10.26405714 1.18330224 -20.1164799 0.05334568 -30 -1 C-30 -1.33 -30 -1.66 -30 -2 C-19.58147754 -3.69556346 -10.21498919 -2.00894787 0 0 Z " fill="#E3B341" transform="translate(549,367)"/>
<path d="M0 0 C0 0.33 0 0.66 0 1 C-9.405 1.495 -9.405 1.495 -19 2 C-18.01 1.67 -17.02 1.34 -16 1 C-16 0.34 -16 -0.32 -16 -1 C-9.63645276 -3.515821 -6.13443817 -2.62904493 0 0 Z " fill="#2C4769" transform="translate(718,267)"/>
<path d="M0 0 C6.19335661 0.91753431 9.97770012 5.9112989 13.9609375 10.31640625 C14.30382812 10.87199219 14.64671875 11.42757812 15 12 C14.67 12.99 14.34 13.98 14 15 C11.66265901 12.69152056 9.33081534 10.37756659 7 8.0625 C6.33226562 7.40314453 5.66453125 6.74378906 4.9765625 6.06445312 C4.34492187 5.43603516 3.71328125 4.80761719 3.0625 4.16015625 C2.47597656 3.57886963 1.88945313 2.99758301 1.28515625 2.39868164 C0 1 0 1 0 0 Z " fill="#D9A128" transform="translate(813,198)"/>
<path d="M0 0 C0.99 1.485 0.99 1.485 2 3 C-6.04456097 2.29563752 -14.01350895 1.18531495 -22 0 C-22 -0.33 -22 -0.66 -22 -1 C-14.60959073 -2.47808185 -7.29872832 -1.87736319 0 0 Z " fill="#DFAE3E" transform="translate(705,203)"/>
<path d="M0 0 C0 0.33 0 0.66 0 1 C3.96 1.33 7.92 1.66 12 2 C12 2.33 12 2.66 12 3 C1.93605753 3.1176305 -7.96557967 2.87801178 -18 2 C-18 1.67 -18 1.34 -18 1 C-16.12528812 0.83012319 -14.25021305 0.66425224 -12.375 0.5 C-11.33085937 0.4071875 -10.28671875 0.314375 -9.2109375 0.21875 C-6.12853212 0.00875645 -3.08834771 -0.03709727 0 0 Z " fill="#E9BD4F" transform="translate(505,712)"/>
<path d="M0 0 C0.33 0 0.66 0 1 0 C1.02722517 2.20826378 1.04649729 4.41662638 1.0625 6.625 C1.07410156 7.85476563 1.08570313 9.08453125 1.09765625 10.3515625 C1.00863924 13.67723791 0.63686087 16.74047588 0 20 C-0.66 20 -1.32 20 -2 20 C-1.85879984 17.41633755 -1.71221667 14.83317115 -1.5625 12.25 C-1.52318359 11.52039063 -1.48386719 10.79078125 -1.44335938 10.0390625 C-1.23852902 6.5727027 -0.9147998 3.34666974 0 0 Z " fill="#D8A129" transform="translate(877,688)"/>
<path d="M0 0 C4.4995862 3.53538915 6.52801139 8.59066764 8 14 C7.67 14.99 7.34 15.98 7 17 C7 16.34 7 15.68 7 15 C6.34 15 5.68 15 5 15 C4.34865075 13.43979133 3.70417036 11.87671421 3.0625 10.3125 C2.70285156 9.44238281 2.34320312 8.57226562 1.97265625 7.67578125 C1.0429688 5.11820735 0.45837375 2.6778677 0 0 Z " fill="#354E6D" transform="translate(745,284)"/>
<path d="M0 0 C2.04190981 0.14238837 4.08352045 0.28907028 6.125 0.4375 C7.83042969 0.55931641 7.83042969 0.55931641 9.5703125 0.68359375 C12.7540478 0.97730965 15.85510907 1.43124313 19 2 C19 2.33 19 2.66 19 3 C16.58265458 3.08117951 14.16805051 3.14056926 11.75 3.1875 C11.06808594 3.21263672 10.38617188 3.23777344 9.68359375 3.26367188 C6.40800711 3.31137459 4.34651444 3.21085076 1.515625 1.48828125 C1.01546875 0.99714844 0.5153125 0.50601563 0 0 Z " fill="#D79D22" transform="translate(321,877)"/>
<path d="M0 0 C3.63631999 6.49342855 4.25850866 11.82650063 3 19 C2.67 19 2.34 19 2 19 C1.66089006 16.95928485 1.32897296 14.91737379 1 12.875 C0.814375 11.73804688 0.62875 10.60109375 0.4375 9.4296875 C0.03043951 6.23862398 -0.07809902 3.21182209 0 0 Z " fill="#E2B13E" transform="translate(310,532)"/>
<path d="M0 0 C0.99 0.33 1.98 0.66 3 1 C5.48063781 12.52164009 5.48063781 12.52164009 4 18 C3.67 18 3.34 18 3 18 C2.49645133 15.56318413 1.99703244 13.12564561 1.5 10.6875 C1.35691406 9.99720703 1.21382812 9.30691406 1.06640625 8.59570312 C0.47374956 5.67475227 0 2.98891878 0 0 Z " fill="#E1AF3F" transform="translate(652,469)"/>
<path d="M0 0 C6.93 0.495 6.93 0.495 14 1 C9.5 3.25 9.5 3.25 5.890625 3.1953125 C5.13652344 3.18886719 4.38242187 3.18242187 3.60546875 3.17578125 C2.43951172 3.15064453 2.43951172 3.15064453 1.25 3.125 C0.45722656 3.11597656 -0.33554687 3.10695313 -1.15234375 3.09765625 C-3.10169281 3.07417012 -5.05088575 3.03830137 -7 3 C-7 2.67 -7 2.34 -7 2 C-3.535 1.505 -3.535 1.505 0 1 C0 0.67 0 0.34 0 0 Z " fill="#E3B241" transform="translate(501,363)"/>
<path d="M0 0 C3.87547124 3.15445333 7.61059096 6.31152546 11 10 C11 10.66 11 11.32 11 12 C5.90025053 10.65006632 2.80502464 7.32802771 0 3 C0 2.01 0 1.02 0 0 Z " fill="#DAA128" transform="translate(362,645)"/>
<path d="M0 0 C0.98484375 0.10183594 1.9696875 0.20367187 2.984375 0.30859375 C4.10585938 0.43427734 4.10585938 0.43427734 5.25 0.5625 C5.25 0.8925 5.25 1.2225 5.25 1.5625 C-0.36 2.2225 -5.97 2.8825 -11.75 3.5625 C-11.09 3.2325 -10.43 2.9025 -9.75 2.5625 C-9.75 1.9025 -9.75 1.2425 -9.75 0.5625 C-6.33860997 -0.53401823 -3.54344419 -0.37965473 0 0 Z " fill="#E3B241" transform="translate(488.75,365.4375)"/>
<path d="M0 0 C-0.9075 0.28875 -1.815 0.5775 -2.75 0.875 C-5.84303674 1.83991135 -5.84303674 1.83991135 -7.90625 3.0625 C-10.35807818 4.16033351 -12.07881332 4.20356431 -14.75 4.125 C-15.54921875 4.10695312 -16.3484375 4.08890625 -17.171875 4.0703125 C-17.77515625 4.04710937 -18.3784375 4.02390625 -19 4 C-15.91433716 1.94289144 -13.63014688 1.21653907 -10.0625 0.3125 C-8.50208984 -0.09548828 -8.50208984 -0.09548828 -6.91015625 -0.51171875 C-4.1294044 -0.97828785 -2.61519118 -0.93894816 0 0 Z " fill="#E3B647" transform="translate(307,149)"/>
<path d="M0 0 C-2 2 -2 2 -4.625 2.125 C-5.40875 2.08375 -6.1925 2.0425 -7 2 C-7 2.66 -7 3.32 -7 4 C-9.75078884 4.91692961 -11.35948913 5.10886083 -14.1875 5.0625 C-16.0746875 5.0315625 -16.0746875 5.0315625 -18 5 C-14.72569418 3.25212177 -11.38657595 2.00747118 -7.875 0.8125 C-6.82054687 0.44769531 -5.76609375 0.08289063 -4.6796875 -0.29296875 C-2 -1 -2 -1 0 0 Z " fill="#E2B03D" transform="translate(733,811)"/>
<path d="M0 0 C3.29911007 6.59822014 3.1285336 12.77355564 3 20 C2.67 20 2.34 20 2 20 C2 17.36 2 14.72 2 12 C1.34 12 0.68 12 0 12 C0 8.04 0 4.08 0 0 Z " fill="#D49A22" transform="translate(821,322)"/>
<path d="M0 0 C0.33 0 0.66 0 1 0 C1.37952295 6.19887485 0.8352113 10.4477112 -2 16 C-3.3805087 12.23331402 -2.59568159 9.55210827 -1.5625 5.75 C-1.27503906 4.67234375 -0.98757813 3.5946875 -0.69140625 2.484375 C-0.46324219 1.66453125 -0.23507812 0.8446875 0 0 Z " fill="#D8A026" transform="translate(874,709)"/>
<path d="M0 0 C4.41657638 2.03841987 8.55257742 4.55257742 12 8 C11.67 8.99 11.34 9.98 11 11 C9.16365304 9.35742342 7.3308593 7.71117305 5.5 6.0625 C4.97535156 5.59392578 4.45070313 5.12535156 3.91015625 4.64257812 C2.5878256 3.44904592 1.29166061 2.22665821 0 1 C0 0.67 0 0.34 0 0 Z " fill="#E0AD3B" transform="translate(371,657)"/>
<path d="M0 0 C-1.66442897 2.02185443 -2.52984103 2.92078843 -5.15625 3.36328125 C-5.9296875 3.34652344 -6.703125 3.32976563 -7.5 3.3125 C-8.2734375 3.30863281 -9.046875 3.30476562 -9.84375 3.30078125 C-12 3 -12 3 -15 1 C-9.9752761 0.37470103 -5.07471573 -0.13012092 0 0 Z " fill="#E1B241" transform="translate(696,820)"/>
<path d="M0 0 C0.33 0 0.66 0 1 0 C1.66 5.28 2.32 10.56 3 16 C2.67 15.34 2.34 14.68 2 14 C1.34 14 0.68 14 0 14 C-1.13016601 8.97703996 -0.77916092 5.02125926 0 0 Z " fill="#E0B143" transform="translate(368,530)"/>
<path d="M0 0 C4.95 0.33 9.9 0.66 15 1 C15 1.33 15 1.66 15 2 C8.4 2.33 1.8 2.66 -5 3 C-5 2.67 -5 2.34 -5 2 C-3.35 1.67 -1.7 1.34 0 1 C0 0.67 0 0.34 0 0 Z " fill="#E9BC4E" transform="translate(344,199)"/>
<path d="M0 0 C2.72107452 2.3500189 3.96702492 4.55674975 5 8 C4.67 8.99 4.34 9.98 4 11 C1.17438373 7.20307814 -0.56638908 4.81430721 0 0 Z " fill="#DAA229" transform="translate(161,753)"/>
<path d="M0 0 C3.96 0.33 7.92 0.66 12 1 C12 1.33 12 1.66 12 2 C6.91913204 2.84681133 2.15171623 3.09038099 -3 3 C-2.01 2.67 -1.02 2.34 0 2 C0 1.34 0 0.68 0 0 Z " fill="#E7B743" transform="translate(527,711)"/>
<path d="M0 0 C-1.44253657 3.36591866 -3.33264727 5.51047079 -6 8 C-6.99 7.67 -7.98 7.34 -9 7 C-7.88121617 5.82737096 -6.75476949 4.66204862 -5.625 3.5 C-4.68527344 2.52546875 -4.68527344 2.52546875 -3.7265625 1.53125 C-2 0 -2 0 0 0 Z " fill="#D9A227" transform="translate(653,654)"/>
<path d="M0 0 C3.91211733 1.15585285 6.8745041 2.35534962 10 5 C8.3125 5.6875 8.3125 5.6875 6 6 C3.3125 4.75 3.3125 4.75 1 3 C0.67 2.01 0.34 1.02 0 0 Z " fill="#E0AD39" transform="translate(274,802)"/>
<path d="M0 0 C3.54971796 0.60852308 6.76693609 1.38346804 10 3 C10.33 3.99 10.66 4.98 11 6 C6.95743617 4.77782954 3.50711041 3.37245704 0 1 C0 0.67 0 0.34 0 0 Z " fill="#354E6B" transform="translate(686,344)"/>
<path d="M0 0 C1 2 1 2 0.1875 5.5625 C-1 9 -1 9 -3 10 C-3.36923077 4.58461538 -3.36923077 4.58461538 -1.5 1.625 C-1.005 1.08875 -0.51 0.5525 0 0 Z " fill="#1B3A63" transform="translate(673,289)"/>
<path d="M0 0 C0.58394531 0.35578125 1.16789062 0.7115625 1.76953125 1.078125 C0.14852095 1.77497998 -1.47742941 2.46035361 -3.10546875 3.140625 C-4.01039063 3.52347656 -4.9153125 3.90632812 -5.84765625 4.30078125 C-8.23046875 5.078125 -8.23046875 5.078125 -10.23046875 4.078125 C-8.39664523 0.41047796 -3.80589749 -1.57301543 0 0 Z " fill="#E0AD39" transform="translate(291.23046875,212.921875)"/>
<path d="M0 0 C-2.71182212 2.60334924 -3.89133813 2.99456691 -7.75 3.1875 C-8.8225 3.125625 -9.895 3.06375 -11 3 C-11.33 2.34 -11.66 1.68 -12 1 C-7.93631321 0.22596442 -4.13574827 -0.0984702 0 0 Z " fill="#D8A028" transform="translate(330,202)"/>
<path d="M0 0 C-3.03525486 2.02350324 -4.19426202 2.32124018 -7.6875 2.625 C-8.49574219 2.69976563 -9.30398438 2.77453125 -10.13671875 2.8515625 C-10.75160156 2.90054688 -11.36648438 2.94953125 -12 3 C-11.01 2.67 -10.02 2.34 -9 2 C-9 1.34 -9 0.68 -9 0 C-5.67465243 -1.10844919 -3.37817425 -0.84454356 0 0 Z " fill="#E3B13D" transform="translate(564,707)"/>
<path d="M0 0 C0.33 0 0.66 0 1 0 C1.33 3.96 1.66 7.92 2 12 C1.67 11.01 1.34 10.02 1 9 C0.01 9.33 -0.98 9.66 -2 10 C-2 8.35 -2 6.7 -2 5 C-1.67 5 -1.34 5 -1 5 C-0.67 3.35 -0.34 1.7 0 0 Z " fill="#E2B444" transform="translate(202,683)"/>
<path d="M0 0 C0.33 0 0.66 0 1 0 C1.33 3.63 1.66 7.26 2 11 C1.34 11 0.68 11 0 11 C-0.33 12.32 -0.66 13.64 -1 15 C-0.67 10.05 -0.34 5.1 0 0 Z " fill="#E6B84A" transform="translate(822,677)"/>
<path d="M0 0 C0.33 0 0.66 0 1 0 C2.03590199 5.05002222 2.10251672 9.87416389 2 15 C1.67 15 1.34 15 1 15 C0.855625 14.2575 0.71125 13.515 0.5625 12.75 C0.07562816 10.11281206 0.07562816 10.11281206 -0.625 8.0625 C-1.14135175 5.22256539 -0.57352767 2.80391303 0 0 Z " fill="#E2B341" transform="translate(366,515)"/>
<path d="M0 0 C-3.1254959 2.64465038 -6.08788267 3.84414715 -10 5 C-9 2 -9 2 -7.25 0.8125 C-4.70039426 -0.10819096 -2.69076919 -0.14948718 0 0 Z " fill="#DFAE3A" transform="translate(777,853)"/>
<path d="M0 0 C5.94 0.99 5.94 0.99 12 2 C12 2.33 12 2.66 12 3 C7.98195309 3.84098656 4.98196457 4.05404945 1 3 C0.67 2.01 0.34 1.02 0 0 Z " fill="#E4B340" transform="translate(471,649)"/>
<path d="M0 0 C0.33 0 0.66 0 1 0 C1 3.3 1 6.6 1 10 C0.01 10 -0.98 10 -2 10 C-2 8.35 -2 6.7 -2 5 C-1.67 5 -1.34 5 -1 5 C-0.67 3.35 -0.34 1.7 0 0 Z " fill="#E3B142" transform="translate(200,346)"/>
<path d="M0 0 C2.12046792 3.53411321 2.53199289 6.94393835 3 11 C2.01 10.67 1.02 10.34 0 10 C-0.95024979 6.30458414 -0.95024979 3.69541586 0 0 Z " fill="#DEAF43" transform="translate(870,287)"/>
<path d="M0 0 C1.39195915 4.17587745 -0.17676781 6.13474776 -2 10 C-2.33 10 -2.66 10 -3 10 C-2.88637738 8.5199159 -2.75877092 7.04089926 -2.625 5.5625 C-2.55539063 4.73878906 -2.48578125 3.91507812 -2.4140625 3.06640625 C-2.27742187 2.38449219 -2.14078125 1.70257813 -2 1 C-1.34 0.67 -0.68 0.34 0 0 Z " fill="#D9A128" transform="translate(159,270)"/>
<path d="M0 0 C1.258125 -0.020625 2.51625 -0.04125 3.8125 -0.0625 C4.52019531 -0.07410156 5.22789062 -0.08570313 5.95703125 -0.09765625 C8 0 8 0 11 1 C11.33 1.99 11.66 2.98 12 4 C10.5608866 3.71640113 9.12374482 3.42278601 7.6875 3.125 C6.88699219 2.96257812 6.08648438 2.80015625 5.26171875 2.6328125 C3 2 3 2 0 0 Z " fill="#E1B244" transform="translate(716,208)"/>
<path d="M0 0 C2 1 2 1 3 3 C1.02 3.66 -0.96 4.32 -3 5 C-3.33 4.01 -3.66 3.02 -4 2 C-2.125 0.9375 -2.125 0.9375 0 0 Z M-5 5 C-3 6 -3 6 -3 6 Z " fill="#DFAE38" transform="translate(576,639)"/>
<path d="M0 0 C3.2542015 2.83430453 4.5206753 4.68607774 5 9 C2.5 6.75 2.5 6.75 0 4 C0 2.68 0 1.36 0 0 Z " fill="#364C67" transform="translate(674,329)"/>
<path d="M0 0 C4.29 0.33 8.58 0.66 13 1 C13 1.33 13 1.66 13 2 C8.545 2.495 8.545 2.495 4 3 C4 2.34 4 1.68 4 1 C2.68 0.67 1.36 0.34 0 0 Z " fill="#E3B23E" transform="translate(531,308)"/>
<path d="M0 0 C0.99 0.66 1.98 1.32 3 2 C-3.625 5.125 -3.625 5.125 -7 4 C-6.34 4 -5.68 4 -5 4 C-5 3.34 -5 2.68 -5 2 C-2.6875 0.875 -2.6875 0.875 0 0 Z " fill="#E0AD3A" transform="translate(752,862)"/>
<path d="M0 0 C3.63 0.33 7.26 0.66 11 1 C11 1.33 11 1.66 11 2 C7.37 2.33 3.74 2.66 0 3 C0 2.01 0 1.02 0 0 Z " fill="#E4B748" transform="translate(327,201)"/>
<path d="M0 0 C-0.66 0 -1.32 0 -2 0 C-2 0.66 -2 1.32 -2 2 C-4.31 2.33 -6.62 2.66 -9 3 C-8 1 -8 1 -5.625 -0.1875 C-3 -1 -3 -1 0 0 Z " fill="#D8A025" transform="translate(762,860)"/>
<path d="M0 0 C3.36591866 1.44253657 5.51047079 3.33264727 8 6 C5.6875 5.8125 5.6875 5.8125 3 5 C1.1875 2.4375 1.1875 2.4375 0 0 Z " fill="#D69C24" transform="translate(219,833)"/>
<path d="M0 0 C1.88391785 3.26545761 2.49287967 6.28111761 3 10 C2.01 9.67 1.02 9.34 0 9 C-0.84454356 5.62182575 -1.10844919 3.32534757 0 0 Z " fill="#E2B040" transform="translate(207,711)"/>
<path d="M0 0 C1.60080151 4.00200378 0.29279692 7.04556236 -1 11 C-1.33 11 -1.66 11 -2 11 C-2.25 3.375 -2.25 3.375 0 0 Z " fill="#D9A024" transform="translate(818,708)"/>
<path d="M0 0 C1.5 1 1.5 1 3 3 C3.27345479 5.71846235 3.13491285 8.25677199 3 11 C0.87953208 7.46588679 0.46800711 4.05606165 0 0 Z " fill="#D49A1E" transform="translate(204,704)"/>
<path d="M0 0 C1.5 1.0625 1.5 1.0625 3 3 C3.1875 6.6875 3.1875 6.6875 3 10 C-0.00617269 6.99382731 0.40414684 4.17618402 0 0 Z " fill="#D69E22" transform="translate(369,544)"/>
<path d="M0 0 C1 3 1 3 0.0625 5.1875 C-0.4634375 6.0846875 -0.4634375 6.0846875 -1 7 C-1.99 7 -2.98 7 -4 7 C-2.92598892 4.08482708 -2.22189824 2.22189824 0 0 Z " fill="#3A516B" transform="translate(678,280)"/>
<path d="M0 0 C2.50357192 1.25178596 4.06433379 2.99981158 6 5 C5.01 5.33 4.02 5.66 3 6 C1.35 4.35 -0.3 2.7 -2 1 C-1.34 0.67 -0.68 0.34 0 0 Z " fill="#4E6373" transform="translate(726,267)"/>
<path d="M0 0 C0.66 0.33 1.32 0.66 2 1 C2 1.66 2 2.32 2 3 C1.01 3 0.02 3 -1 3 C-0.67 2.01 -0.34 1.02 0 0 Z " fill="#646A62" transform="translate(673,333)"/>
<path d="M0 0 C0.99 0.99 1.98 1.98 3 3 C2.01 3 1.02 3 0 3 C0 2.01 0 1.02 0 0 Z " fill="#616A63" transform="translate(680,341)"/>
<path d="M0 0 C1.65 0 3.3 0 5 0 C5 0.33 5 0.66 5 1 C3.35 1 1.7 1 0 1 C0 0.67 0 0.34 0 0 Z " fill="#DEAE38" transform="translate(504,886)"/>
<path d="M0 0 C0.33 0 0.66 0 1 0 C1 1.65 1 3.3 1 5 C0.67 5 0.34 5 0 5 C0 3.35 0 1.7 0 0 Z " fill="#5A6462" transform="translate(666,314)"/>
<path d="M0 0 C0.99 0.33 1.98 0.66 3 1 C2.01 1 1.02 1 0 1 C0 0.67 0 0.34 0 0 Z " fill="#5E6764" transform="translate(691,349)"/>
<path d="M0 0 C4 1 4 1 4 1 Z " fill="#DFB040" transform="translate(316,207)"/>
<path d="M0 0 C3 1 3 1 3 1 Z " fill="#DDAC37" transform="translate(554,886)"/>
<path d="M0 0 C3 1 3 1 3 1 Z " fill="#DEAC37" transform="translate(546,886)"/>
<path d="M0 0 C3 1 3 1 3 1 Z " fill="#DDAD37" transform="translate(426,886)"/>
<path d="M0 0 C3 1 3 1 3 1 Z " fill="#E0B03D" transform="translate(317,816)"/>
<path d="M0 0 C0.33 0.66 0.66 1.32 1 2 C0.34 1.67 -0.32 1.34 -1 1 C-0.67 0.67 -0.34 0.34 0 0 Z " fill="#D8A737" transform="translate(171,780)"/>
<path d="M0 0 C3 1 3 1 3 1 Z " fill="#E1B23C" transform="translate(584,632)"/>
<path d="" fill="#E1B03E" transform="translate(0,0)"/>
<path d="M0 0 C2 1 2 1 2 1 Z " fill="#DEAD37" transform="translate(579,886)"/>
<path d="M0 0 C2 1 2 1 2 1 Z " fill="#DDAC36" transform="translate(571,886)"/>
<path d="M0 0 C2 1 2 1 2 1 Z " fill="#DDAD36" transform="translate(470,886)"/>
<path d="M0 0 C2 1 2 1 2 1 Z " fill="#DDAC37" transform="translate(467,886)"/>
<path d="M0 0 C2 1 2 1 2 1 Z " fill="#DDAC36" transform="translate(640,885)"/>
<path d="M0 0 C2 1 2 1 2 1 Z " fill="#DDAE37" transform="translate(369,885)"/>
<path d="M0 0 C2 1 2 1 2 1 Z " fill="#DBAA39" transform="translate(661,884)"/>
<path d="M0 0 C2 1 2 1 2 1 Z " fill="#E1B03B" transform="translate(294,809)"/>
<path d="M0 0 C2 1 2 1 2 1 Z " fill="#E0AF38" transform="translate(291,808)"/>
<path d="" fill="#DBAD3C" transform="translate(0,0)"/>
<path d="M0 0 C2 1 2 1 2 1 Z " fill="#E2B23C" transform="translate(434,701)"/>
<path d="" fill="#D8AA37" transform="translate(0,0)"/>
<path d="" fill="#E1B141" transform="translate(0,0)"/>
<path d="" fill="#E2B13B" transform="translate(0,0)"/>
<path d="" fill="#E2B23B" transform="translate(0,0)"/>
<path d="" fill="#E2B13B" transform="translate(0,0)"/>
<path d="" fill="#E0B23F" transform="translate(0,0)"/>
<path d="M0 0 C2 1 2 1 2 1 Z " fill="#E1B13B" transform="translate(636,438)"/>
<path d="" fill="#616861" transform="translate(0,0)"/>
<path d="M0 0 C2 1 2 1 2 1 Z " fill="#DFB03E" transform="translate(416,328)"/>
<path d="" fill="#596461" transform="translate(0,0)"/>
<path d="" fill="#DAAB43" transform="translate(0,0)"/>
<path d="M0 0 C2 1 2 1 2 1 Z " fill="#E1B13E" transform="translate(456,312)"/>
<path d="" fill="#5C6664" transform="translate(0,0)"/>
<path d="" fill="#586666" transform="translate(0,0)"/>
<path d="" fill="#596768" transform="translate(0,0)"/>
<path d="" fill="#D4A335" transform="translate(0,0)"/>
<path d="M0 0 C2 1 2 1 2 1 Z " fill="#5F6A67" transform="translate(725,264)"/>
<path d="M0 0 C2 1 2 1 2 1 Z " fill="#566568" transform="translate(704,264)"/>
<path d="M0 0 C2 1 2 1 2 1 Z " fill="#596667" transform="translate(701,264)"/>
<path d="" fill="#D7A73A" transform="translate(0,0)"/>
<path d="M0 0 C2 1 2 1 2 1 Z " fill="#DAAD40" transform="translate(699,206)"/>
<path d="M0 0 C2 1 2 1 2 1 Z " fill="#E2B23E" transform="translate(323,206)"/>
<path d="M0 0 C2 1 2 1 2 1 Z " fill="#E2B33F" transform="translate(342,203)"/>
<path d="" fill="#99751C" transform="translate(0,0)"/>
<path d="" fill="#DCAD37" transform="translate(0,0)"/>
<path d="" fill="#DDAD37" transform="translate(0,0)"/>
<path d="" fill="#DEAE38" transform="translate(0,0)"/>
<path d="" fill="#DFAE38" transform="translate(0,0)"/>
<path d="" fill="#DFAF36" transform="translate(0,0)"/>
<path d="" fill="#DFAE37" transform="translate(0,0)"/>
<path d="" fill="#DEAD35" transform="translate(0,0)"/>
<path d="" fill="#DEAC37" transform="translate(0,0)"/>
<path d="" fill="#DFAD37" transform="translate(0,0)"/>
<path d="" fill="#DEAE37" transform="translate(0,0)"/>
<path d="" fill="#DEAD38" transform="translate(0,0)"/>
<path d="" fill="#DEAB37" transform="translate(0,0)"/>
<path d="" fill="#DFAF37" transform="translate(0,0)"/>
<path d="" fill="#DEAE38" transform="translate(0,0)"/>
<path d="" fill="#DFAD37" transform="translate(0,0)"/>
<path d="" fill="#E0AE39" transform="translate(0,0)"/>
<path d="" fill="#DEAE37" transform="translate(0,0)"/>
<path d="" fill="#DEAE38" transform="translate(0,0)"/>
<path d="" fill="#DEAC37" transform="translate(0,0)"/>
<path d="" fill="#DFAE38" transform="translate(0,0)"/>
<path d="" fill="#DCAB36" transform="translate(0,0)"/>
<path d="" fill="#DBAB38" transform="translate(0,0)"/>
<path d="" fill="#DBAC35" transform="translate(0,0)"/>
<path d="" fill="#D9A833" transform="translate(0,0)"/>
<path d="" fill="#D9A832" transform="translate(0,0)"/>
<path d="" fill="#DBAB37" transform="translate(0,0)"/>
<path d="" fill="#DBA93B" transform="translate(0,0)"/>
<path d="" fill="#DBA936" transform="translate(0,0)"/>
<path d="" fill="#DCA938" transform="translate(0,0)"/>
<path d="" fill="#D9AA39" transform="translate(0,0)"/>
<path d="" fill="#DBAA38" transform="translate(0,0)"/>
<path d="" fill="#DBAB3A" transform="translate(0,0)"/>
<path d="" fill="#D9A936" transform="translate(0,0)"/>
<path d="" fill="#DEA838" transform="translate(0,0)"/>
<path d="" fill="#D9A731" transform="translate(0,0)"/>
<path d="" fill="#DAA937" transform="translate(0,0)"/>
<path d="" fill="#DBA937" transform="translate(0,0)"/>
<path d="" fill="#D8A736" transform="translate(0,0)"/>
<path d="" fill="#D5A535" transform="translate(0,0)"/>
<path d="" fill="#DBA939" transform="translate(0,0)"/>
<path d="" fill="#EAB83C" transform="translate(0,0)"/>
<path d="" fill="#E3B038" transform="translate(0,0)"/>
<path d="" fill="#D7A735" transform="translate(0,0)"/>
<path d="" fill="#E1B23A" transform="translate(0,0)"/>
<path d="" fill="#D9AA38" transform="translate(0,0)"/>
<path d="" fill="#D9A73D" transform="translate(0,0)"/>
<path d="" fill="#E0B03B" transform="translate(0,0)"/>
<path d="" fill="#DAAA35" transform="translate(0,0)"/>
<path d="" fill="#E1B03C" transform="translate(0,0)"/>
<path d="" fill="#D9A837" transform="translate(0,0)"/>
<path d="" fill="#DFAF3D" transform="translate(0,0)"/>
<path d="" fill="#D6A83B" transform="translate(0,0)"/>
<path d="" fill="#DAAB35" transform="translate(0,0)"/>
<path d="" fill="#E2B139" transform="translate(0,0)"/>
<path d="" fill="#DAAB3A" transform="translate(0,0)"/>
<path d="" fill="#D8A93B" transform="translate(0,0)"/>
<path d="" fill="#D7A83B" transform="translate(0,0)"/>
<path d="" fill="#E4B33D" transform="translate(0,0)"/>
<path d="" fill="#E2B23E" transform="translate(0,0)"/>
<path d="" fill="#E4B03C" transform="translate(0,0)"/>
<path d="" fill="#E8B73F" transform="translate(0,0)"/>
<path d="" fill="#D8AA3A" transform="translate(0,0)"/>
<path d="" fill="#D9AA37" transform="translate(0,0)"/>
<path d="" fill="#E5B43C" transform="translate(0,0)"/>
<path d="" fill="#E6B53D" transform="translate(0,0)"/>
<path d="" fill="#E3B33E" transform="translate(0,0)"/>
<path d="" fill="#E4B33B" transform="translate(0,0)"/>
<path d="" fill="#E6B23C" transform="translate(0,0)"/>
<path d="" fill="#E4B33F" transform="translate(0,0)"/>
<path d="" fill="#E3B23D" transform="translate(0,0)"/>
<path d="" fill="#DAA933" transform="translate(0,0)"/>
<path d="" fill="#E2B03B" transform="translate(0,0)"/>
<path d="" fill="#E2B33E" transform="translate(0,0)"/>
<path d="" fill="#DBAA35" transform="translate(0,0)"/>
<path d="" fill="#E7B43F" transform="translate(0,0)"/>
<path d="" fill="#E0B143" transform="translate(0,0)"/>
<path d="" fill="#E3B237" transform="translate(0,0)"/>
<path d="" fill="#E3B23A" transform="translate(0,0)"/>
<path d="" fill="#E4B33D" transform="translate(0,0)"/>
<path d="" fill="#E0AD39" transform="translate(0,0)"/>
<path d="" fill="#E0AE3E" transform="translate(0,0)"/>
<path d="" fill="#E4B33C" transform="translate(0,0)"/>
<path d="" fill="#E9B641" transform="translate(0,0)"/>
<path d="" fill="#E3B03C" transform="translate(0,0)"/>
<path d="" fill="#E2B143" transform="translate(0,0)"/>
<path d="" fill="#E0AF37" transform="translate(0,0)"/>
<path d="" fill="#E1AF3E" transform="translate(0,0)"/>
<path d="" fill="#DFAF36" transform="translate(0,0)"/>
<path d="" fill="#E4B346" transform="translate(0,0)"/>
<path d="" fill="#E1B13B" transform="translate(0,0)"/>
<path d="" fill="#E4B43C" transform="translate(0,0)"/>
<path d="" fill="#E3B43E" transform="translate(0,0)"/>
<path d="" fill="#DEAF3B" transform="translate(0,0)"/>
<path d="" fill="#DEAE3C" transform="translate(0,0)"/>
<path d="" fill="#E5B43D" transform="translate(0,0)"/>
<path d="" fill="#E2B13C" transform="translate(0,0)"/>
<path d="" fill="#D7AA40" transform="translate(0,0)"/>
<path d="" fill="#DBAC3C" transform="translate(0,0)"/>
<path d="" fill="#DFAF3B" transform="translate(0,0)"/>
<path d="" fill="#D0A642" transform="translate(0,0)"/>
<path d="" fill="#E0AD38" transform="translate(0,0)"/>
<path d="" fill="#CEA540" transform="translate(0,0)"/>
<path d="" fill="#CEA43F" transform="translate(0,0)"/>
<path d="" fill="#E3B33E" transform="translate(0,0)"/>
<path d="" fill="#CDA33F" transform="translate(0,0)"/>
<path d="" fill="#E8B440" transform="translate(0,0)"/>
<path d="" fill="#E3B13E" transform="translate(0,0)"/>
<path d="" fill="#E0AB38" transform="translate(0,0)"/>
<path d="" fill="#516068" transform="translate(0,0)"/>
<path d="" fill="#5E6B62" transform="translate(0,0)"/>
<path d="" fill="#DBAB36" transform="translate(0,0)"/>
<path d="" fill="#606764" transform="translate(0,0)"/>
<path d="" fill="#546269" transform="translate(0,0)"/>
<path d="" fill="#D6AB40" transform="translate(0,0)"/>
<path d="" fill="#D8A83C" transform="translate(0,0)"/>
<path d="" fill="#506066" transform="translate(0,0)"/>
<path d="" fill="#5A6462" transform="translate(0,0)"/>
<path d="" fill="#E2B33F" transform="translate(0,0)"/>
<path d="" fill="#D9AB3C" transform="translate(0,0)"/>
<path d="" fill="#DBAE42" transform="translate(0,0)"/>
<path d="" fill="#E0B240" transform="translate(0,0)"/>
<path d="" fill="#DDAE3E" transform="translate(0,0)"/>
<path d="" fill="#5C6663" transform="translate(0,0)"/>
<path d="" fill="#E5B441" transform="translate(0,0)"/>
<path d="" fill="#5E6863" transform="translate(0,0)"/>
<path d="" fill="#5A6664" transform="translate(0,0)"/>
<path d="" fill="#DBAC42" transform="translate(0,0)"/>
<path d="" fill="#5B6768" transform="translate(0,0)"/>
<path d="" fill="#546367" transform="translate(0,0)"/>
<path d="" fill="#5A6766" transform="translate(0,0)"/>
<path d="" fill="#DFAE3A" transform="translate(0,0)"/>
<path d="" fill="#5D6865" transform="translate(0,0)"/>
<path d="" fill="#636C63" transform="translate(0,0)"/>
<path d="" fill="#5B6967" transform="translate(0,0)"/>
<path d="" fill="#5A6864" transform="translate(0,0)"/>
<path d="" fill="#586768" transform="translate(0,0)"/>
<path d="" fill="#5E6B66" transform="translate(0,0)"/>
<path d="" fill="#576665" transform="translate(0,0)"/>
<path d="" fill="#5E6965" transform="translate(0,0)"/>
<path d="" fill="#576565" transform="translate(0,0)"/>
<path d="" fill="#DEAE3B" transform="translate(0,0)"/>
<path d="" fill="#D8AB3E" transform="translate(0,0)"/>
<path d="" fill="#E1AD3D" transform="translate(0,0)"/>
<path d="" fill="#D7A93C" transform="translate(0,0)"/>
<path d="" fill="#E1AD3A" transform="translate(0,0)"/>
<path d="" fill="#E1B03B" transform="translate(0,0)"/>
<path d="" fill="#D7A940" transform="translate(0,0)"/>
<path d="" fill="#D8A73B" transform="translate(0,0)"/>
<path d="" fill="#D6A740" transform="translate(0,0)"/>
<path d="" fill="#E2B13B" transform="translate(0,0)"/>
<path d="" fill="#D5A73C" transform="translate(0,0)"/>
<path d="" fill="#E3B23F" transform="translate(0,0)"/>
<path d="" fill="#E0AE3A" transform="translate(0,0)"/>
<path d="" fill="#D8AB43" transform="translate(0,0)"/>
<path d="" fill="#E0B03F" transform="translate(0,0)"/>
<path d="" fill="#D5A838" transform="translate(0,0)"/>
<path d="" fill="#D8AB3E" transform="translate(0,0)"/>
<path d="" fill="#D5A634" transform="translate(0,0)"/>
<path d="" fill="#D6A633" transform="translate(0,0)"/>
<path d="" fill="#D9A435" transform="translate(0,0)"/>
<path d="" fill="#D9A732" transform="translate(0,0)"/>
<path d="" fill="#D8A939" transform="translate(0,0)"/>
<path d="" fill="#D9AA36" transform="translate(0,0)"/>
<path d="" fill="#D8A837" transform="translate(0,0)"/>
<path d="" fill="#D8A93A" transform="translate(0,0)"/>
<path d="" fill="#D7A838" transform="translate(0,0)"/>
<path d="" fill="#DCAE3A" transform="translate(0,0)"/>
<path d="" fill="#D8AA38" transform="translate(0,0)"/>
<path d="" fill="#DAA832" transform="translate(0,0)"/>
<path d="" fill="#DDAB39" transform="translate(0,0)"/>
<path d="" fill="#DCAA36" transform="translate(0,0)"/>
<path d="" fill="#DFAE3A" transform="translate(0,0)"/>
<path d="" fill="#DDAD39" transform="translate(0,0)"/>
<path d="" fill="#2E2000" transform="translate(0,0)"/>
</svg>
